#N canvas 215 23 1710 1148 10;
#X obj 241 81 cnv 15 1200 1000 empty empty empty 20 12 0 14 -146157
-66577 0;
#X obj 221 61 cnv 15 1200 1000 empty empty TheDoppelBänger 20 30 1
30 -192057 -262144 0;
#N canvas 14 23 1920 1151 DoppleBangerGuts 1;
#X obj 33 1369 nbx 5 28 -1e+37 1e+37 0 0 empty empty empty 0 -8 0 28
-4034 -1 -1 0 256;
#X floatatom 44 1313 10 0 0 0 - - -, f 10;
#X obj 33 1280 timbreID;
#X obj 49 1352 r resetZero;
#X obj 33 1456 s closest;
#X text 59 1436 stores the nearest match;
#X text 94 1456 sends match index to the sampler;
#N canvas 818 23 977 743 onsets 0;
#X obj 54 45 inlet~;
#X obj 114 496 outlet;
#X obj 1 -85 cnv 10 400 10 empty empty empty 20 12 0 14 -233017 -66577
0;
#X obj 1 -85 cnv 10 10 400 empty empty empty 20 12 0 14 -233017 -66577
0;
#X obj 54 127 bark~;
#X obj 53 -57 loadbang;
#X obj 79 88 r bark-settings;
#X text 339 36 timbreID comes with its own onset detection object:
bark~. See its helpfile for more details. In comparison with bonk~
(the usual onset detection object in Pd) \, bark~ performs very similarly
but has several extra conveniences. Most importantly \, there is a
non-real-time version of the object \, enabling easy parsing of pre-recorded
audio.;
#X msg 53 -35 \; bark-settings minvel 20 \; bark-settings debounce
200 \; bark-settings thresh -5 12 \;;
#X obj 54 185 del 1.45125;
#X obj 212 200 loadbang;
#X obj 146 359 f;
#X obj 176 359 + 1;
#X msg 175 330 0;
#X obj 114 283 t b b;
#X obj 212 244 / 44.1;
#X obj 175 290 select 10;
#X text 339 138 Delay the bang to bfcc~ by 1/2 the analysis period
to fill the window with a good portion of immediately post-onset sound.
since the Bela Sample Rate is 44100Hz and our bfcc analyses the last
128 samples we need to delay by 1.45125 ms or 64 samples. thats not
very much;
#X msg 114 227 1;
#X msg 151 227 0;
#X floatatom 212 266 5 0 0 0 - - -, f 5;
#X obj 114 261 metro 0.362;
#X floatatom 176 381 5 0 0 0 - - -, f 5;
#X msg 212 223 64;
#X text 340 216 For the Wrangler Graph we want to \; take 10 BFCCs
for each onset \; To do this we have to \; open the floodgate for metro
\; and make sure to shut it off \; after 10 snapshots are taken. \;
This creates 10 snapshots \; spaced 64 samples apart in time. \;;
#X obj 54 496 outlet;
#X connect 0 0 4 0;
#X connect 4 0 9 0;
#X connect 5 0 8 0;
#X connect 6 0 4 0;
#X connect 9 0 25 0;
#X connect 9 0 18 0;
#X connect 10 0 23 0;
#X connect 11 0 12 0;
#X connect 11 0 16 0;
#X connect 12 0 11 1;
#X connect 12 0 22 0;
#X connect 13 0 11 1;
#X connect 14 0 1 0;
#X connect 14 1 11 0;
#X connect 15 0 20 0;
#X connect 15 0 21 1;
#X connect 16 0 13 0;
#X connect 16 0 19 0;
#X connect 18 0 21 0;
#X connect 19 0 21 0;
#X connect 21 0 14 0;
#X connect 23 0 15 0;
#X restore 52 1029 pd onsets;
#X floatatom 33 674 12 0 0 0 - - -, f 12;
#X obj 31 2059 phasor~;
#X msg 70 1997 0;
#X obj 70 1946 r stop;
#X obj 89 649 bng 15 250 50 0 empty empty empty 17 7 0 10 -262144 -1
-1;
#X text 108 647 click to reset speed <<<<;
#X obj 31 2443 dac~ 1 2;
#X floatatom 33 748 12 0 0 0 - - -, f 12;
#X obj 70 2035 r SamplePos;
#X text 109 749 current PBF(Hz);
#X text 109 674 natural playbackFreq (PBF) of the phasor in Hz;
#X obj 42 385 soundfiler;
#X floatatom 42 413 20 0 0 0 - - -, f 20;
#X obj 42 438 s sampleSize;
#X text 117 1944 stops phasor \; by setting \; its PBF to 0hz.;
#X text 36 2075 magic phasor that controlls all;
#X obj 31 2135 *~;
#X obj 46 2114 r sampleSize;
#X obj 427 2152 snapshot~;
#X floatatom 427 2179 12 0 0 0 - - -, f 12;
#X obj 427 2203 s currentpos;
#X obj 76 978 s~ micOut;
#X obj 257 2404 r~ micOut;
#X obj 35 961 *~;
#X floatatom 482 1529 12 0 0 0 - - -, f 12;
#X obj 482 1570 + 1;
#X floatatom 482 1638 20 0 0 0 - - -, f 20;
#X floatatom 279 1640 20 0 0 0 - - -, f 20;
#X obj 403 1638 r currentpos;
#X obj 279 1685 /;
#X obj 294 1661 r sampleSize;
#X obj 475 1695 >;
#X obj 252 1798 float;
#X obj 252 1749 bng 15 250 50 0 empty empty empty 17 7 0 10 -262144
-1 -1;
#X obj 252 1825 s SamplePos;
#X obj 279 1607 tabread attacks;
#X obj 482 1605 tabread attacks;
#X obj 361 1528 r resetZero;
#X obj 43 718 del 10;
#X obj 242 2426 *~;
#X obj 70 1975 bng 15 250 50 0 empty empty empty 17 7 0 10 -262144
-1 -1;
#X obj 706 678 *, f 5;
#X obj 706 732 *, f 5;
#X obj 427 2125 bang~;
#X obj 520 1722 moses;
#X floatatom 606 1739 5 0 0 0 - - -, f 5;
#X floatatom 606 1802 5 0 0 0 - - -, f 5;
#X obj 606 1758 - 1;
#X obj 606 1780 * -1;
#X obj 605 1821 tgl 15 0 empty empty empty 17 7 0 10 -262144 -1 -1
-0 1;
#X text 575 1570 a change in sample triggers it to be played;
#X text 608 1638 the end position of the snippet;
#X text 32 1641 access the start position of the snippet;
#X text 638 1765 if the mic is on or a sample \; is being played then
DSP is \; on \, otherwise the DSP is off;
#X text 292 1764 trigger the snippet by \; sending the float to \;
change the phase of the \; phasor~;
#X text 134 2161 acces the correct elemt \; from the tables containing
\; the sound.;
#X text 559 1528 closest match number;
#X text 122 1031 detect an onset;
#X obj 33 1226 r tID;
#X msg 62 277 read binary\$1.timid;
#X obj 35 857 adc~ 1 2;
#X obj 31 2184 tabread4~ Sample;
#X text 29 176 LOADING SAMPLES \; ~~~~~~~~~~~~~~~~, f 17;
#X obj 55 1247 r ID;
#X obj 36 1143 s ID;
#X text 83 881 Turn Rec on or off;
#X obj 42 221 r BankNum;
#X text 188 278 load the analysis data into [timbreID];
#X text 203 331 load the onset data into [table attacks];
#X text 392 359 load the sound Bank audio file into [Sample];
#X text 109 385 gets the size of current Sound Bank in samples;
#X text 166 411 << size in samples;
#X text 29 551 PLAYBACK SPEED \; ~~~~~~~~~~~~~~~;
#X obj 33 772 s CPS;
#X obj 31 1922 r CPS;
#X obj 780 705 r PBF;
#X text 848 593 Multiplier ( 1 to 10 );
#X text 706 593 Speed ( -1 to 1 );
#X obj 31 2307 r~ CurrentSample;
#X obj 31 2206 s~ CurrentSample;
#X text 511 2177 << current sample number;
#X text 127 2112 mulityply the signal by the number \; of samples to
get current position in the bank;
#X text 146 1988 gets pos (in samps) of \; the start of the current
\; sound within the sound bank \; and sets the phase of the \; [phasor~]
;
#X obj 706 755 s SpeedChange;
#X obj 113 718 r SpeedChange;
#X obj 62 304 s tID;
#X obj 9 552 cnv 15 15 250 empty empty empty 20 12 0 14 -155639 -66577
0;
#X msg 52 324 \; attacks read table\$1.txt;
#X obj 8 1880 cnv 15 15 343 empty empty empty 20 12 0 14 -261760 -66577
0;
#X text 469 2124 sends a bang at the sample rate;
#X text 487 2150 converts signal into a float;
#X obj 9 178 cnv 15 15 350 empty empty empty 20 12 0 14 -262130 -66577
0;
#X text 138 978 Raw audio input;
#X text 90 858 Get Signal From Mic;
#X obj 36 1066 bfcc~ 128 0.5;
#N canvas 0 22 450 300 (subpatch) 0;
#X array bfcc-graph 47 float 0;
#X coords 0 1 46 -1 200 140 1;
#X restore 256 853 graph;
#X text 172 1374 the current match.;
#N canvas 0 22 450 278 (subpatch) 0;
#X array Wrangle 470 float 1;
#A 0 1 1 1 1 1 1 1 1 1 1 0.896243 0.88751 0.900407 0.894114 0.891252
0.896903 0.672807 0.662369 0.734284 0.580678 0.645872 0.623284 0.682522
0.650616 0.63825 0.652549 0.37052 0.309365 0.58531 0.272036 0.351369
0.323267 0.433158 0.362777 0.347461 0.366025 0.147659 0.131797 0.408462
0.126358 0.113319 0.0916662 0.241084 0.128165 0.112434 0.133569 0.112692
0.143404 0.222308 0.0689674 -0.0176368 -0.0333998 0.143427 -0.00762504
-0.0200366 -0.001832 0.0201334 0.0350285 0.0983646 -0.0181084 -0.0514519
-0.0660292 0.119861 -0.0492765 -0.0590676 -0.0484384 -0.0458695 -0.0466827
0.0567763 -0.0928212 -0.0312549 -0.04687 0.128776 -0.0319646 -0.0449549
-0.0385582 -0.0428003 -0.0608313 0.053936 -0.113952 0.00195757 -0.0148972
0.132709 3.6881e-06 -0.0132842 -0.00628118 -0.00581936 -0.00256121
0.0687238 -0.124808 0.0280863 0.0139614 0.120109 0.0296283 0.0181732
0.0273799 0.0319798 0.00734117 0.0493436 -0.0563718 0.04568 0.037503
0.102801 0.0507268 0.0446833 0.052389 0.0296596 0.0324305 0.0956218
0.0317978 0.0573421 0.0539844 0.0906171 0.0619791 0.0614437 0.0667428
0.024874 0.0421341 0.103918 0.0517748 0.059131 0.0567234 0.0802264
0.0629535 0.062402 0.0663216 0.0402439 0.0492668 0.0645709 0.0462856
0.0484403 0.0438365 0.0618107 0.0495435 0.0460159 0.048892 0.0402287
0.0266588 0.0611671 0.0218782 0.0220402 0.0178356 0.0338342 0.0212515
0.018036 0.0196804 0.00346565 0.000507577 0.0108503 -0.0225204 -0.00939963
-0.00995262 0.00200109 -0.010087 -0.0115473 -0.0118268 -0.00591332
-0.00407643 0.000429881 -0.0189788 -0.030313 -0.0290338 -0.0222509
-0.0311751 -0.029652 -0.0308984 -0.0178526 -0.023822 -0.0258173 -0.0174277
-0.0321428 -0.0309062 -0.030918 -0.0321855 -0.0310378 -0.031607 -0.0187241
-0.00995408 -0.0294097 -0.00250105 -0.0182487 -0.017107 -0.0246147
-0.0182948 -0.0185669 -0.0186942 -0.0144384 -0.0158987 -0.0143234 -0.0159265
-0.00149256 -0.00101522 -0.012257 -0.00196825 -0.000983094 -0.00211671
0.00378869 0.00462589 -0.0121623 0.00153844 0.00699334 0.0084207 -0.00400582
0.00676454 0.00748919 0.00674925 0.00336334 -0.00032718 -0.00234174
0.0138804 0.00650996 0.00745482 -0.00347274 0.00600766 0.00685041 0.00608919
0.00243996 0.00668358 0.00379362 0.00163498 0.00152957 0.00207978 -0.00412939
0.00148815 0.0023801 0.00169411 0.000636232 -0.00450449 -0.00798586
0.00256623 -0.000671259 -0.000263186 -0.00233107 -0.000396332 -0.000814758
-0.000565502 0.00176743 0.00652606 0.00548719 0.0115437 0.00152957
0.00114127 0.00260719 0.00121892 0.00151037 0.00139755 -0.00331312
-0.00493045 -0.00129203 -0.0143744 0.00536503 0.00487393 0.00852686
0.00576542 0.00521234 0.00582497 0.00944861 0.00698051 0.00425731 0.0121817
0.00718318 0.00641885 0.0106573 0.00778059 0.00723161 0.00797187 0.000259085
0.00441425 0.0156255 0.00286056 0.00674522 0.00597984 0.0117334 0.00734443
0.00707606 0.00792781 0.00762405 0.00630646 0.00850967 0.000929406
0.00414194 0.00346945 0.0106986 0.00455515 0.0040215 0.00456043 -0.00326397
-0.00110961 0.00818058 0.00436663 -0.000427029 -0.00111693 0.00826007
-0.000756487 -0.00122083 -0.000738617 0.00758382 0.00457749 0.00657361
-0.00359276 -0.00686237 -0.00800291 0.00208794 -0.00744536 -0.00873875
-0.00881943 -0.0113831 -0.0129125 -0.0119714 -0.0195511 -0.013446 -0.0141711
-0.00680783 -0.014134 -0.0146986 -0.0148819 -0.00621081 -0.00748745
-0.00388848 -0.0211882 -0.0152827 -0.0150211 -0.0144101 -0.015144 -0.0152772
-0.0152574 -0.0130975 -0.0113307 -0.0153488 -0.000703185 -0.00836415
-0.00650942 -0.0155181 -0.00802251 -0.00632821 -0.00673545 0.00293654
0.00429284 -0.00966228 0.00638479 0.00576588 0.00800176 -0.0107764
0.00592141 0.00778325 0.00684121 0.00146588 0.00329889 -0.0023709 0.018149
0.0181294 0.0197604 -0.00529962 0.0181281 0.01932 0.0178649 0.00699344
0.0113408 0.00974774 0.0222632 0.0188489 0.0203514 -0.00836673 0.0174937
0.0190544 0.0173966 0.0129752 0.00314307 -0.0109605 0.00417416 0.00332197
0.00614099 -0.0235795 0.0026821 0.0042781 0.00209548 0.00781713 0.00823923
-0.0135242 0.0179898 -0.0219029 -0.017747 -0.046219 -0.0228396 -0.0197888
-0.022263 -0.0176571 -0.0120974 -0.031643 -0.000151233 -0.0428575 -0.0383688
-0.0633446 -0.0437397 -0.0402014 -0.0432327 -0.0287132 -0.0276526 -0.0487946
-0.00327814 -0.0465751 -0.042959 -0.0652253 -0.0476956 -0.0452905 -0.0478938
-0.0250295 -0.0245935 -0.0569619 -0.0174252 -0.0315032 -0.0288113 -0.0518749
-0.0331469 -0.0320023 -0.03442 -0.0167784 -0.0125416 -0.0430773 -0.0183583
-0.00780494 -0.00577606 -0.0318092 -0.00985876 -0.00860966 -0.0112749
-0.00627102 -0.0165929 -0.0310584 -0.00729737 0.010229 0.0137572 -0.0155182
0.00915227 0.0119168 0.00917949 9.56777e-05 0.00182662 -0.00731072
0.0124373 0.0168564 0.0200289 -0.00933988 0.0168883 0.0200407 0.0182097
0.0135867 0.0154377 0.00637045 0.0378822 0.0134071 0.0153592 -0.00893386
0.014695 0.0162517 0.0162818 0.0119237 0.0175098 5.84426e-06 0.0218072
0.00672358 0.00686376 -0.00709395 0.00794586 0.00800946 0.00883259
0.00552532 0.00499863 0.00719924 0.020505;
#X coords 0 1 469 -1 200 140 1;
#X restore 469 853 graph;
#X obj 832 392 f;
#X obj 832 419 mod 12;
#X obj 726 419 moses 1;
#X obj 765 459 - 1;
#X obj 726 458 + 11;
#X obj 726 392 f;
#X floatatom 726 483 5 0 0 0 - - -, f 5;
#X obj 864 392 + 1;
#X obj 726 507 s BankNum;
#X text 705 175 SAMPLE BANK MANAGEMENT \; -------------------;
#X obj 943 441 - 1;
#X obj 943 419 r TBankNum;
#X obj 44 1409 print CurrentTimbre;
#X obj 679 178 cnv 15 15 350 empty empty empty 20 12 0 14 -261633 -66577
0;
#X text 704 216 Change Total number of banks--;
#X obj 686 558 cnv 15 15 250 empty empty empty 20 12 0 14 -35904 -66577
0;
#X obj 9 820 cnv 15 15 343 empty empty empty 20 12 0 14 -261234 -66577
0;
#X obj 726 350 r Bank--;
#X obj 832 351 r Bank++;
#X obj 706 616 r PBS;
#X obj 848 619 r MULT;
#X text 33 820 ANALYSE AUDIO IN \; ~~~~~~~~~~~~~~~~~~~~~~~~~;
#X obj 1082 1467 stripnote;
#X floatatom 1252 1428 5 0 0 0 - - -, f 5;
#X floatatom 1291 1428 5 0 0 0 - - -, f 5;
#X floatatom 1327 1428 5 0 0 0 - - -, f 5;
#X floatatom 1363 1428 5 0 0 0 - - -, f 5;
#X obj 1232 1488 pack f f f f;
#X obj 1318 1487 pack f f;
#X obj 1318 1457 sel 0;
#X msg 1232 1509 1 \$2 \, \$4 \$3 \$2;
#X msg 1318 1530 0 \$2;
#X obj 1232 1560 vline~;
#X obj 1082 1440 notein;
#X obj 1363 1405 r R;
#X obj 1327 1405 r S;
#X obj 1291 1405 r D;
#X obj 1252 1404 r A;
#X obj 1059 1317 cnv 15 15 380 empty empty empty 20 12 0 14 -203904
-66577 0;
#X text 255 996 Most recent BFCC Sent to timbreID;
#X text 468 995 Wrangled version Of the 10 most \; recently analysed
BFCCS;
#N canvas 380 381 450 300 bfcc-graph-plotter 1;
#X obj 18 37 inlet;
#X obj 18 173 list prepend 0;
#X obj 18 195 s bfcc-graph;
#X obj 116 133 list length;
#X obj 116 155 change;
#X obj 18 79 t l l;
#X msg 116 178 \; bfcc-graph resize \$1 \;;
#X obj 259 164 binWrangler 10 47;
#N canvas 380 381 450 300 Wranglegraph 0;
#X obj 18 37 inlet;
#X obj 18 173 list prepend 0;
#X obj 116 133 list length;
#X obj 116 155 change;
#X obj 18 79 t l l;
#X obj 18 195 s Wrangle;
#X msg 116 178 \; Wrangle resize \$1 \;;
#X connect 0 0 4 0;
#X connect 1 0 5 0;
#X connect 2 0 3 0;
#X connect 3 0 6 0;
#X connect 4 0 1 0;
#X connect 4 1 2 0;
#X restore 259 191 pd Wranglegraph;
#X obj 259 38 inlet;
#X connect 0 0 5 0;
#X connect 1 0 2 0;
#X connect 3 0 4 0;
#X connect 4 0 6 0;
#X connect 5 0 1 0;
#X connect 5 1 3 0;
#X connect 7 0 8 0;
#X connect 9 0 7 0;
#X restore 56 1090 pd bfcc-graph-plotter;
#X text 68 1136 Send The BFCC~ to [timbreID] to be Compared to the
BFCCs of samples in the Sample Banks;
#X text 1082 1318 CREATE AN ADSR ENVELOPE \; ~~~~~~~~~~~~~~~~~~~~~~~~~
;
#X obj 31 2362 *~;
#X obj 1232 1587 s~ ADSR;
#X obj 137 2345 r~ ADSR;
#X obj 482 1509 r closest;
#X obj 9 1494 cnv 15 15 343 empty empty empty 20 12 0 14 -204786 -66577
0;
#X obj 9 1176 cnv 15 15 300 empty empty empty 20 12 0 14 -83584 -66577
0;
#X text 705 557 CHANGE PLAYBACK SPEED \; ----------------------;
#X text 32 1180 PERFORM A SEARCH FOR THE NEAREST MATCH \; ~~~~~~~~~~~~~~~~~~~~~~~~~~~~~~~~~~~~~~~
;
#X text 35 1493 ACCESS & TRIGGER THE CORRECT SAMPLE \; ~~~~~~~~~~~~~~~~~~~~~~~~~~~~~~~~~~~~
;
#X text 28 2269 MIX THE AUDIO OUT \; ~~~~~~~~~~~~~~~~~~~~~~~~~;
#X obj 6 2268 cnv 15 15 200 empty empty empty 20 12 0 14 -33289 -66577
0;
#X text 89 1248 Recieves BFCC from [bfcc~];
#X text 71 1226 Recieves .timid binary training data for each bank
;
#X text 108 1305 euclidean distance to the nearest match within the
feature space (can be used as a measure of confidence), f 54;
#X obj 242 2378 r MicGain;
#X obj 510 1570 s Trigger;
#X obj 252 1720 r Trigger;
#X obj 1151 1427 r Trigger;
#X obj 31 2389 *~;
#X obj 137 2372 r Gain;
#X text 700 324 Change Current Sample Bank --;
#X obj 1427 1398 r Trigger;
#X obj 1427 1428 bng 15 250 50 0 empty empty empty 17 7 0 10 -262144
-1 -1;
#X obj 1427 1450 delay 500, f 16;
#X obj 1427 1472 bng 15 250 50 0 empty empty empty 17 7 0 10 -262144
-1 -1;
#X obj 1520 1401 r S;
#X obj 1427 1493 s S-del;
#X obj 1520 1423 * 1000;
#X text 156 1663 divide by size \; to get a number \; between 0 & 1
for \; the [phasor~];
#X obj 43 698 r Trigger;
#X obj 1439 956 tgl 15 0 empty empty empty 17 7 0 10 -262144 -1 -1
1 1;
#X obj 1406 981 spigot;
#X obj 1406 1076 s stop;
#X obj 1406 1056 spigot;
#X obj 1317 1056 spigot;
#X obj 1317 1076 bng 15 250 50 0 empty empty empty 17 7 0 10 -262144
-1 -1;
#X obj 1171 943 + 1;
#X obj 1135 923 bng 15 250 50 0 empty empty empty 17 7 0 10 -262144
-1 -1;
#X obj 1135 943 f;
#X floatatom 1135 986 5 0 0 0 - - -, f 5;
#X obj 1171 965 + 1;
#X floatatom 1196 987 5 0 0 0 - - -, f 5;
#X obj 1135 1034 pack;
#X obj 1217 1017 f 1;
#X obj 1217 1001 bng 15 250 50 0 empty empty empty 17 7 0 10 -262144
-1 -1;
#X obj 1196 1035 pack;
#X obj 1156 1000 bng 15 250 50 0 empty empty empty 17 7 0 10 -262144
-1 -1;
#X obj 1156 1016 f 0;
#X floatatom 1683 922 5 0 0 0 - - -, f 5;
#X msg 1632 895 1;
#X obj 1632 1013 bng 15 250 50 0 empty empty empty 17 7 0 10 -262144
-1 -1;
#N canvas 0 22 450 300 TempoTap--- 0;
#X obj 31 88 t b b;
#X obj 31 132 timer;
#X obj 31 29 bng 15 250 50 0 empty empty empty 0 -6 0 10 -262144 -1
-1;
#X obj 31 153 expr 60000 / $f1;
#X floatatom 31 189 10 0 0 0 - - -, f 10;
#N canvas 473 23 1040 834 superTT 0;
#X obj 307 139 t b b;
#X obj 307 183 timer;
#N canvas 0 22 450 300 (subpatch) 0;
#X array \$0-tt 6 float 2;
#X coords 0 1000 6 -1 40 50 1;
#X restore 601 202 graph;
#X obj 630 320 f;
#X msg 702 289 0;
#X obj 687 378 + 1;
#X obj 630 350 t f f;
#X obj 549 376 tabwrite \$0-tt;
#X obj 702 257 loadbang;
#X obj 308 364 until;
#X msg 355 397 0;
#X obj 308 430 f;
#X obj 308 512 tabread \$0-tt;
#X obj 308 541 + 0;
#X obj 308 462 t f f;
#X obj 335 489 + 1;
#X obj 308 567 t f f;
#X obj 220 472 f;
#X obj 308 300 t b b b;
#X msg 388 396 0;
#X obj 307 223 t b b f b;
#X obj 220 612 expr 60000 / $f1;
#X obj 307 92 inlet bang;
#X obj 96 673 outlet ms;
#X obj 220 671 outlet bpm;
#X obj 687 406 sel 6;
#X msg 308 339 6;
#X obj 220 498 / 6;
#X text 718 344 Send Value From f to tabwrite and then increment by
1;
#X text 730 405 if f + 1 = 6 then reset f to 0;
#X text 549 405 Write Time Elapsed \; to table;
#X text 352 569 Read and sum the values stored in \$0-tt;
#X text 52 454 divide the sum of the \; values in \$0-tt by the \;
total number of values \; to get the average time \; between bangs
;
#X text 346 157 output elapsed time \; then reset the timer;
#X text 233 633 Divide by ms per Min to get Avg BPM;
#X connect 0 0 1 0;
#X connect 0 1 1 1;
#X connect 1 0 20 0;
#X connect 3 0 6 0;
#X connect 4 0 3 1;
#X connect 5 0 25 0;
#X connect 6 0 7 1;
#X connect 6 1 5 0;
#X connect 8 0 4 0;
#X connect 9 0 11 0;
#X connect 10 0 11 1;
#X connect 11 0 14 0;
#X connect 12 0 13 0;
#X connect 13 0 16 0;
#X connect 14 0 12 0;
#X connect 14 1 15 0;
#X connect 15 0 11 1;
#X connect 16 0 17 1;
#X connect 16 1 13 1;
#X connect 17 0 27 0;
#X connect 18 0 26 0;
#X connect 18 1 10 0;
#X connect 18 2 19 0;
#X connect 19 0 13 1;
#X connect 20 0 17 0;
#X connect 20 1 18 0;
#X connect 20 2 7 0;
#X connect 20 3 3 0;
#X connect 21 0 24 0;
#X connect 22 0 0 0;
#X connect 25 0 4 0;
#X connect 25 1 3 1;
#X connect 26 0 9 0;
#X connect 27 0 21 0;
#X connect 27 0 23 0;
#X restore 160 153 pd superTT;
#X floatatom 160 190 8 0 0 0 ms - -, f 8;
#X floatatom 217 190 10 0 0 1 bpm - -, f 10;
#X obj 31 1 inlet;
#X obj 160 264 outlet;
#X obj 217 263 outlet;
#X obj 282 219 int;
#X obj 282 263 outlet;
#X floatatom 282 243 5 0 0 1 Nearest_Whole - -, f 5;
#X obj 31 264 outlet, f 26;
#X connect 0 0 1 0;
#X connect 0 1 1 1;
#X connect 1 0 3 0;
#X connect 2 0 0 0;
#X connect 2 0 5 0;
#X connect 3 0 4 0;
#X connect 4 0 14 0;
#X connect 5 0 6 0;
#X connect 5 1 7 0;
#X connect 6 0 9 0;
#X connect 7 0 10 0;
#X connect 7 0 11 0;
#X connect 8 0 2 0;
#X connect 11 0 13 0;
#X connect 13 0 12 0;
#X restore 1632 873 pd TempoTap---;
#X obj 1632 969 spigot;
#X text 1721 921 ms;
#X text 1703 981 every tap resarts \; the metro;
#X obj 1156 1119 s LoopM;
#X obj 1135 1139 s PlayOnceM;
#X obj 1350 1002 r LoopM;
#X obj 1439 1004 r PlayOnceM;
#X obj 1439 1026 tgl 15 0 empty empty empty 17 7 0 10 -262144 -1 -1
1 1;
#X obj 1350 1024 tgl 15 0 empty empty empty 17 7 0 10 -262144 -1 -1
0 1;
#X obj 1177 1099 s TempoM;
#X obj 1564 944 tgl 15 0 empty empty empty 17 7 0 10 -262144 -1 -1
0 1;
#X obj 1564 922 r TempoM;
#X obj 1632 848 r tempoTap;
#X obj 1081 884 loadbang;
#X obj 1317 1095 s Trigger;
#X obj 1716 1028 s Trigger;
#X obj 1196 965 mod 3;
#X obj 1135 965 mod 3;
#X obj 1135 1075 route 0 1 2;
#X obj 1059 816 cnv 15 15 430 empty empty empty 20 12 0 14 -35209 -66577
0;
#X obj 1081 900 t b b b;
#X text 1089 825 UTILISE A SPECIFIC PLAYBACK MODE ~~~~~~~~~~~~~~~~~~~~~~~~~~~~~~~~~~~~
;
#X obj 1135 884 r Mode;
#X obj 1406 922 r SamplerMode;
#X obj 475 1783 s SamplerMode;
#X msg 42 358 read -maxsize 4e+08 -resize sample\$1.wav Sample;
#X obj 86 937 tgl 15 0 empty empty empty 17 7 0 10 -262144 -1 -1 0
1;
#X obj 717 241 loadbang;
#X obj 717 288 s TBankNum;
#X msg 717 266 12;
#X text 750 265 <<<< TOTAL BANK NUMBER --- (change this to the desired
number of sample banks), f 80;
#N canvas 0 23 450 300 bangOnce 0;
#X obj 156 -370 f;
#X obj 183 -370 + 1;
#X obj 156 -395 bng 15 250 50 0 empty empty empty 17 7 0 10 -262144
-1 -1;
#X obj 156 -347 == 1;
#X msg 119 -370 0;
#X obj 156 -322 tgl 15 0 empty empty empty 17 7 0 10 -262144 -1 -1
0 1;
#X floatatom 118 -346 5 0 0 0 - - -, f 5;
#X obj 123 -302 spigot;
#X obj 123 -278 bng 15 250 50 0 empty empty empty 17 7 0 10 -262144
-1 -1;
#X obj 56 -372 loadbang;
#X obj 47 -471 inlet;
#X obj 119 -471 inlet;
#X obj 123 -246 outlet;
#X obj 182 -246 outlet;
#X obj 234 -245 outlet;
#X connect 0 0 1 0;
#X connect 0 0 3 0;
#X connect 0 0 6 0;
#X connect 1 0 0 1;
#X connect 2 0 0 0;
#X connect 2 0 7 0;
#X connect 3 0 5 0;
#X connect 4 0 0 0;
#X connect 5 0 7 1;
#X connect 6 0 13 0;
#X connect 7 0 8 0;
#X connect 8 0 12 0;
#X connect 8 0 14 0;
#X connect 9 0 4 0;
#X connect 10 0 2 0;
#X connect 11 0 4 0;
#X connect 11 0 14 0;
#X restore 382 67 pd bangOnce;
#X text 382 35 Useful Subpatches;
#N canvas 0 23 450 300 makeMIDI 0;
#X obj 121 58 r trigger;
#X floatatom 136 102 5 0 0 0 - - -, f 5;
#X obj 121 156 makenote 3.2 500;
#X obj 121 125 f;
#X obj 167 86 r midigain;
#X obj 214 112 r release;
#X obj 33 209 spigot;
#X obj 66 183 tgl 15 0 empty empty empty 17 7 0 10 -262144 -1 -1 0
1;
#X obj 25 77 notein;
#X obj 25 99 sel 43;
#X obj 33 233 midiout 2;
#X text 96 88 tombre num;
#X text 4 42 Send list of BFCCs to the classification external.;
#X text 294 57 See timbreID helpfile:;
#X connect 0 0 3 0;
#X connect 1 0 3 1;
#X connect 2 0 6 0;
#X connect 3 0 2 0;
#X connect 4 0 2 1;
#X connect 5 0 2 2;
#X connect 6 0 10 0;
#X connect 7 0 6 1;
#X connect 8 0 9 0;
#X connect 9 0 7 0;
#X restore 382 87 pd makeMIDI;
#X obj 519 71 table attacks 1000;
#X obj 120 69 tgl 15 0 empty empty empty 17 7 0 10 -262144 -1 -1 1
1;
#X msg 120 95 \; pd dsp \$1;
#X obj 120 48 loadbang;
#X text 242 28 Control Subpatches;
#X obj 244 95 tgl 15 0 empty empty empty 17 7 0 10 -262144 -1 -1 1
1;
#X obj 244 50 r lb;
#X obj 141 69 s lb;
#X obj 276 50 r midiMode;
#N canvas 0 22 450 300 TglSwp 0;
#X obj 73 99 * -1;
#X obj 73 121 + 1;
#X obj 73 79 tgl 15 0 empty empty empty 17 7 0 10 -262144 -1 -1 0 1
;
#X obj 73 143 tgl 15 0 empty empty empty 17 7 0 10 -262144 -1 -1 0
1;
#X obj 73 54 inlet;
#X obj 73 163 outlet;
#X connect 0 0 1 0;
#X connect 1 0 3 0;
#X connect 2 0 0 0;
#X connect 3 0 5 0;
#X connect 4 0 2 0;
#X restore 276 70 pd TglSwp;
#N canvas 188 23 1481 1012 BELA 0;
#X obj 638 459 adc~ 4;
#X obj 417 585 adc~ 5;
#X obj 637 585 adc~ 6;
#X obj 837 575 adc~ 7;
#X obj 1047 575 adc~ 8;
#X text 415 559 A;
#X text 635 559 D, f 2;
#X text 1046 549 R, f 2;
#X text 412 434 PBS;
#X text 637 436 MULT;
#X obj 22 105 s bela_setDigital;
#X obj 22 54 loadbang;
#X obj 414 200 r bela_digitalIn11;
#X obj 414 459 adc~ 3;
#X obj 619 239 route 1 0;
#X msg 644 261 bang;
#X obj 644 283 tgl 15 0 empty empty empty 17 7 0 10 -262144 -1 -1 0
1;
#X obj 619 194 r bela_digitalIn12;
#X obj 413 715 adc~ 9;
#X obj 836 711 adc~ 10;
#X text 412 174 BUTTON REC;
#X text 617 172 BUTTON MODE;
#X text 688 274 LED GRN;
#X text 36 157 11 = Big Button Left - rec;
#X text 36 176 12 = Big Button Right - mode;
#X text 36 195 13 = Green LED - on/off;
#X text 36 214 14 = Pressure Pad - on/off;
#X text 36 233 15 = Small Button Left - bank <;
#X text 36 252 16 = Small Button Right - bank >;
#X text 36 270 18 = Pot Left - In Vol;
#X text 36 288 19 = Pot Right - Out Vol;
#X text 36 130 DIGITAL PINS;
#X text 11 195 OUT;
#X text 17 157 IN;
#X text 17 176 IN;
#X text 17 213 IN;
#X text 17 232 IN;
#X text 17 251 IN;
#X obj 927 261 tgl 15 0 empty empty empty 17 7 0 10 -262144 -1 -1 0
1;
#X obj 927 337 bng 15 250 50 0 empty empty empty 17 7 0 10 -262144
-1 -1;
#X obj 927 315 spigot;
#X obj 938 292 - 1;
#X obj 644 324 s Mode;
#X text 926 169 Small Button L;
#X obj 1123 267 tgl 15 0 empty empty empty 17 7 0 10 -262144 -1 -1
0 1;
#X obj 1123 343 bng 15 250 50 0 empty empty empty 17 7 0 10 -262144
-1 -1;
#X obj 1123 321 spigot;
#X obj 1134 298 - 1;
#X text 1122 168 Small Button R;
#X obj 927 191 r bela_digitalIn15;
#X obj 1123 191 r bela_digitalIn16;
#X obj 1143 265 print RightButton;
#X text 411 876 Left Pot;
#X text 636 876 Right Pot;
#X text 5 269 ANAL;
#X text 5 287 ANAL;
#X obj 413 901 adc~ 17;
#X obj 638 901 adc~ 18;
#X obj 689 323 s bela_digitalOut13;
#X msg 22 78 in 11 \, in 12 \, out 13 \, in 14 \, in 15 \, in 16 \,
in 17 ~ \, in 18 ~;
#X text 35 334 ANALOG PINS;
#X text 37 361 1 = Audio In - Left Channel;
#X text 37 380 2 = Audio In - Right Channel;
#X text 37 399 3 = Dial Pot - Left;
#X text 37 419 4 = Dial Pot - Right;
#X text 10 361 ADC;
#X text 10 380 ADC;
#X text 10 399 ADC;
#X text 10 418 ADC;
#X text 10 436 ADC;
#X text 10 455 ADC;
#X text 10 473 ADC;
#X text 10 491 ADC;
#X text 37 493 8 = Far Right Metal Pot - R;
#X text 37 475 7 = Middle Right Metal Pot - S;
#X text 37 458 6 = Middle Left Metal Pot - D;
#X text 37 438 5 = Far Left Metal Pot - A;
#X text 37 525 1 = Audio Out - Left Channel;
#X text 10 525 DAC;
#X text 10 541 DAC;
#X text 38 543 2 = Audio Out - Right Channel;
#N canvas 0 22 450 300 TglSwp 0;
#X obj 73 99 * -1;
#X obj 73 121 + 1;
#X obj 73 79 tgl 15 0 empty empty empty 17 7 0 10 -262144 -1 -1 0 1
;
#X obj 73 143 tgl 15 0 empty empty empty 17 7 0 10 -262144 -1 -1 0
1;
#X obj 73 54 inlet;
#X obj 73 163 outlet;
#X connect 0 0 1 0;
#X connect 1 0 3 0;
#X connect 2 0 0 0;
#X connect 3 0 5 0;
#X connect 4 0 2 0;
#X restore 13 657 pd TglSwp;
#N canvas 190 200 1422 857 Bng2Snap 0;
#X obj 100 438 snapshot~;
#X obj 353 345 bng 15 250 50 0 empty empty empty 17 7 0 10 -262144
-1 -1;
#X obj 368 345 bng 15 250 50 0 empty empty empty 17 7 0 10 -262144
-1 -1;
#X obj 384 345 bng 15 250 50 0 empty empty empty 17 7 0 10 -262144
-1 -1;
#X obj 400 345 bng 15 250 50 0 empty empty empty 17 7 0 10 -262144
-1 -1;
#X obj 416 345 bng 15 250 50 0 empty empty empty 17 7 0 10 -262144
-1 -1;
#X obj 432 345 bng 15 250 50 0 empty empty empty 17 7 0 10 -262144
-1 -1;
#X obj 353 153 f;
#X obj 353 87 bng 15 250 50 0 empty empty empty 17 7 0 10 -262144 -1
-1;
#X obj 477 112 f;
#X obj 504 112 + 1;
#X obj 477 87 bng 15 250 50 0 empty empty empty 17 7 0 10 -262144 -1
-1;
#X floatatom 477 156 5 0 0 0 - - -, f 5;
#X obj 796 349 bang~;
#X obj 85 461 f;
#X floatatom 477 207 5 0 0 0 - - -, f 5;
#X obj 176 438 snapshot~;
#X obj 161 461 f;
#X obj 477 186 + 3;
#X obj 253 438 snapshot~;
#X obj 238 461 f;
#X obj 329 439 snapshot~;
#X obj 314 462 f;
#X obj 406 439 snapshot~;
#X obj 391 462 f;
#X obj 482 439 snapshot~;
#X obj 467 462 f;
#X obj 477 285 print adc~;
#X obj 547 441 snapshot~;
#X obj 532 464 f;
#X obj 614 443 snapshot~;
#X obj 599 466 f;
#X obj 448 345 bng 15 250 50 0 empty empty empty 17 7 0 10 -262144
-1 -1;
#X obj 464 345 bng 15 250 50 0 empty empty empty 17 7 0 10 -262144
-1 -1;
#X obj 328 19 r bela_digitalIn11;
#X obj 452 39 r bela_digitalIn12;
#X obj 436 515 s printer;
#X obj 437 562 r printer;
#X obj 18 349 adc~ 3 4 5 6 7 8 9 10 18 19;
#X obj 353 310 route 0 1 2 3 4 5 6 7 8 9, f 27;
#X obj 363 172 bng 15 250 50 0 empty empty empty 17 7 0 10 -262144
-1 -1;
#X obj 686 445 snapshot~;
#X obj 671 468 f;
#X obj 753 447 snapshot~;
#X obj 738 470 f;
#X obj 480 345 bng 15 250 50 0 empty empty empty 17 7 0 10 -262144
-1 -1;
#X obj 496 345 bng 15 250 50 0 empty empty empty 17 7 0 10 -262144
-1 -1;
#X obj 536 327 bng 15 250 50 0 empty empty empty 17 7 0 10 -262144
-1 -1;
#X obj 477 134 mod 10;
#X floatatom 477 247 5 0 0 0 - - -, f 5;
#X floatatom 522 267 5 0 0 0 - - -, f 5;
#X obj 477 225 moses 11;
#X obj 522 246 + 7;
#X obj 437 617 spigot;
#X obj 470 591 r TglSnpI/O;
#X text 596 36 REC BUTTON TO READ CURRENT SIGNAL;
#X text 596 60 MODE BUTTON TO CHANGE THE DAC~ YOURE MONITORING;
#X obj 328 46 route 1 0;
#X obj 452 61 route 1 0;
#X obj 437 639 print Signal-;
#X connect 0 0 14 1;
#X connect 1 0 14 0;
#X connect 2 0 17 0;
#X connect 3 0 20 0;
#X connect 4 0 22 0;
#X connect 5 0 24 0;
#X connect 6 0 26 0;
#X connect 7 0 39 0;
#X connect 7 0 40 0;
#X connect 8 0 7 0;
#X connect 9 0 10 0;
#X connect 9 0 48 0;
#X connect 10 0 9 1;
#X connect 11 0 9 0;
#X connect 12 0 7 1;
#X connect 12 0 18 0;
#X connect 13 0 0 0;
#X connect 13 0 16 0;
#X connect 13 0 19 0;
#X connect 13 0 21 0;
#X connect 13 0 23 0;
#X connect 13 0 25 0;
#X connect 13 0 28 0;
#X connect 13 0 30 0;
#X connect 13 0 41 0;
#X connect 13 0 43 0;
#X connect 14 0 36 0;
#X connect 15 0 51 0;
#X connect 16 0 17 1;
#X connect 17 0 36 0;
#X connect 18 0 15 0;
#X connect 19 0 20 1;
#X connect 20 0 36 0;
#X connect 21 0 22 1;
#X connect 22 0 36 0;
#X connect 23 0 24 1;
#X connect 24 0 36 0;
#X connect 25 0 26 1;
#X connect 26 0 36 0;
#X connect 28 0 29 1;
#X connect 29 0 36 0;
#X connect 30 0 31 1;
#X connect 31 0 36 0;
#X connect 32 0 29 1;
#X connect 33 0 31 0;
#X connect 34 0 57 0;
#X connect 35 0 58 0;
#X connect 37 0 53 0;
#X connect 38 0 0 0;
#X connect 38 1 16 0;
#X connect 38 2 19 0;
#X connect 38 3 21 0;
#X connect 38 4 23 0;
#X connect 38 5 25 0;
#X connect 38 6 28 0;
#X connect 38 7 30 0;
#X connect 38 8 41 0;
#X connect 38 9 43 0;
#X connect 39 0 1 0;
#X connect 39 1 2 0;
#X connect 39 2 3 0;
#X connect 39 3 4 0;
#X connect 39 4 5 0;
#X connect 39 5 6 0;
#X connect 39 6 32 0;
#X connect 39 7 33 0;
#X connect 39 8 45 0;
#X connect 39 9 46 0;
#X connect 39 10 47 0;
#X connect 40 0 18 0;
#X connect 41 0 42 1;
#X connect 42 0 36 0;
#X connect 43 0 44 1;
#X connect 44 0 36 0;
#X connect 45 0 42 0;
#X connect 46 0 44 0;
#X connect 48 0 12 0;
#X connect 49 0 27 0;
#X connect 50 0 27 0;
#X connect 51 0 49 0;
#X connect 51 1 52 0;
#X connect 52 0 50 0;
#X connect 53 0 59 0;
#X connect 54 0 53 1;
#X connect 57 1 8 0;
#X connect 58 1 11 0;
#X restore 13 594 pd Bng2Snap;
#X text 415 690 Pressure;
#X text 835 686 Piezo;
#N canvas 0 22 450 300 TglSwp 0;
#X obj 73 99 * -1;
#X obj 73 121 + 1;
#X obj 73 79 tgl 15 0 empty empty empty 17 7 0 10 -262144 -1 -1 0 1
;
#X obj 73 143 tgl 15 0 empty empty empty 17 7 0 10 -262144 -1 -1 0
1;
#X obj 73 54 inlet;
#X obj 73 163 outlet;
#X connect 0 0 1 0;
#X connect 1 0 3 0;
#X connect 2 0 0 0;
#X connect 3 0 5 0;
#X connect 4 0 2 0;
#X restore 414 259 pd TglSwp;
#X text 411 843 Digital to Signal ~~~ treated as ANALOG;
#X text 79 658 Inverts toggle output;
#X text 84 593 monitor a secific signal when banged;
#X text 128 689 ANALOG CALIBRATION;
#X text 836 550 S, f 2;
#N canvas 0 23 805 768 AnalCalibration 0;
#X floatatom 202 155 5 0 0 0 - - -, f 5;
#X floatatom 291 155 5 0 0 0 - - -, f 5;
#X floatatom 202 282 5 0 0 0 - - -, f 5;
#X floatatom 291 282 5 0 0 0 - - -, f 5;
#X floatatom 202 416 5 0 0 0 - - -, f 5;
#X floatatom 291 416 5 0 0 0 - - -, f 5;
#X msg 202 253 0;
#X msg 291 253 0.832;
#X obj 202 306 s ADSRMin;
#X obj 291 306 s ADSRMax;
#X obj 202 179 s ModWhlMin;
#X obj 291 179 s ModWhlMax;
#X obj 202 440 s PressMin;
#X obj 291 440 s PressMax;
#X floatatom 202 541 5 0 0 0 - - -, f 5;
#X floatatom 291 541 5 0 0 0 - - -, f 5;
#X obj 202 565 s PotMin;
#X obj 291 565 s PotMax;
#X msg 202 387 0;
#X msg 291 387 1;
#X msg 202 512 0;
#X msg 291 512 1;
#X obj 390 152 -;
#X obj 390 194 s ModWhlDiv;
#X obj 390 280 -;
#X obj 390 414 -;
#X obj 391 542 -;
#X obj 73 360 loadbang;
#X obj 390 452 s PressDiv;
#X floatatom 390 434 5 0 0 0 - - -, f 5;
#X floatatom 391 564 5 0 0 0 - - -, f 5;
#X obj 391 583 s PotDiv;
#X obj 390 125 r ModWhlMax;
#X obj 390 253 r ADSRMax;
#X obj 470 263 r ADSRMin;
#X obj 470 397 r PressMin;
#X obj 390 387 r PressMax;
#X obj 391 515 r PotMax;
#X obj 471 525 r PotMin;
#X floatatom 390 302 12 0 0 0 - - -, f 12;
#X floatatom 390 174 5 0 0 0 - - -, f 5;
#X obj 470 135 r ModWhlMin;
#X obj 74 410 delay 10;
#X obj 390 323 s ADSRDiv;
#X msg 202 128 0.268;
#X msg 291 128 0.552;
#X floatatom 196 45 5 0 0 0 - - -, f 5;
#X floatatom 285 45 5 0 0 0 - - -, f 5;
#X obj 384 42 -;
#X floatatom 384 64 5 0 0 0 - - -, f 5;
#X msg 285 18 0.544;
#X msg 196 18 0.271;
#X obj 196 69 s ModWhlRMin;
#X obj 285 69 s ModWhlRMax;
#X obj 384 15 r ModWhlRMax;
#X obj 464 25 r ModWhlRMin;
#X obj 384 84 s ModWhlRDiv;
#X connect 0 0 10 0;
#X connect 1 0 11 0;
#X connect 2 0 8 0;
#X connect 3 0 9 0;
#X connect 4 0 12 0;
#X connect 5 0 13 0;
#X connect 6 0 2 0;
#X connect 7 0 3 0;
#X connect 14 0 16 0;
#X connect 15 0 17 0;
#X connect 18 0 4 0;
#X connect 19 0 5 0;
#X connect 20 0 14 0;
#X connect 21 0 15 0;
#X connect 22 0 40 0;
#X connect 24 0 39 0;
#X connect 25 0 29 0;
#X connect 26 0 30 0;
#X connect 27 0 44 0;
#X connect 27 0 6 0;
#X connect 27 0 18 0;
#X connect 27 0 20 0;
#X connect 27 0 42 0;
#X connect 27 0 51 0;
#X connect 29 0 28 0;
#X connect 30 0 31 0;
#X connect 32 0 22 0;
#X connect 33 0 24 0;
#X connect 34 0 24 1;
#X connect 35 0 25 1;
#X connect 36 0 25 0;
#X connect 37 0 26 0;
#X connect 38 0 26 1;
#X connect 39 0 43 0;
#X connect 40 0 23 0;
#X connect 41 0 22 1;
#X connect 42 0 7 0;
#X connect 42 0 19 0;
#X connect 42 0 21 0;
#X connect 42 0 45 0;
#X connect 42 0 50 0;
#X connect 44 0 0 0;
#X connect 45 0 1 0;
#X connect 46 0 52 0;
#X connect 47 0 53 0;
#X connect 48 0 49 0;
#X connect 49 0 56 0;
#X connect 50 0 47 0;
#X connect 51 0 46 0;
#X connect 54 0 48 0;
#X connect 55 0 48 1;
#X restore 13 688 pd AnalCalibration;
#N canvas 0 23 450 300 ADSR 0;
#X obj 27 94 -~;
#X obj 27 49 inlet~;
#X obj 52 99 r ADSRDiv;
#X obj 43 71 r ADSRMin;
#X obj 27 116 /~;
#X obj 27 138 snapshot~;
#X obj 120 121 bang~;
#X obj 27 163 outlet;
#X connect 0 0 4 0;
#X connect 1 0 0 0;
#X connect 2 0 4 1;
#X connect 3 0 0 1;
#X connect 4 0 5 0;
#X connect 5 0 7 0;
#X connect 6 0 5 0;
#X restore 417 606 pd ADSR;
#X obj 532 732 bark~;
#X obj 532 704 r bark;
#N canvas 0 22 450 300 TglSwp 0;
#X obj 73 99 * -1;
#X obj 73 121 + 1;
#X obj 73 79 tgl 15 0 empty empty empty 17 7 0 10 -262144 -1 -1 0 1
;
#X obj 73 143 tgl 15 0 empty empty empty 17 7 0 10 -262144 -1 -1 0
1;
#X obj 73 54 inlet;
#X obj 73 163 outlet;
#X connect 0 0 1 0;
#X connect 1 0 3 0;
#X connect 2 0 0 0;
#X connect 3 0 5 0;
#X connect 4 0 2 0;
#X restore 1123 236 pd TglSwp;
#N canvas 0 22 450 300 TglSwp 0;
#X obj 73 99 * -1;
#X obj 73 121 + 1;
#X obj 73 79 tgl 15 0 empty empty empty 17 7 0 10 -262144 -1 -1 0 1
;
#X obj 73 143 tgl 15 0 empty empty empty 17 7 0 10 -262144 -1 -1 0
1;
#X obj 73 54 inlet;
#X obj 73 163 outlet;
#X connect 0 0 1 0;
#X connect 1 0 3 0;
#X connect 2 0 0 0;
#X connect 3 0 5 0;
#X connect 4 0 2 0;
#X restore 927 234 pd TglSwp;
#N canvas 0 23 450 300 ModWhl 0;
#X obj 52 99 r ModWhlDiv;
#X obj 42 71 r ModWhlMin;
#X obj 27 94 -~;
#X obj 27 49 inlet~;
#X obj 27 116 /~;
#X obj 133 133 snapshot~;
#X obj 27 150 outlet;
#X obj 133 99 bang~;
#X connect 0 0 4 1;
#X connect 1 0 2 1;
#X connect 2 0 4 0;
#X connect 3 0 2 0;
#X connect 4 0 5 0;
#X connect 5 0 6 0;
#X connect 7 0 5 0;
#X restore 414 481 pd ModWhl;
#N canvas 0 23 450 300 ModWhlR 0;
#X obj 27 94 -~;
#X obj 27 49 inlet~;
#X obj 27 116 /~;
#X obj 133 133 snapshot~;
#X obj 133 198 outlet;
#X obj 133 108 bang~;
#X obj 42 71 r ModWhlRMin;
#X obj 51 99 r ModWhlRDiv;
#X obj 133 155 - 1;
#X obj 133 177 * -1;
#X connect 0 0 2 0;
#X connect 1 0 0 0;
#X connect 2 0 3 0;
#X connect 3 0 8 0;
#X connect 5 0 3 0;
#X connect 6 0 0 1;
#X connect 7 0 2 1;
#X connect 8 0 9 0;
#X connect 9 0 4 0;
#X restore 638 481 pd ModWhlR;
#N canvas 0 23 450 300 RightPot 0;
#X obj 37 61 inlet~;
#X obj 37 83 snapshot~;
#X obj 37 105 outlet;
#X obj 125 66 metro 100;
#X obj 125 22 loadbang;
#X obj 125 44 tgl 15 0 empty empty empty 17 7 0 10 -262144 -1 -1 1
1;
#X connect 0 0 1 0;
#X connect 1 0 2 0;
#X connect 3 0 1 0;
#X connect 4 0 5 0;
#X connect 5 0 3 0;
#X restore 638 923 pd RightPot;
#N canvas 0 23 450 300 LeftPot 0;
#X obj 37 61 inlet~;
#X obj 37 83 snapshot~;
#X obj 37 105 outlet;
#X obj 125 66 metro 100;
#X obj 125 22 loadbang;
#X obj 125 44 tgl 15 0 empty empty empty 17 7 0 10 -262144 -1 -1 1
1;
#X connect 0 0 1 0;
#X connect 1 0 2 0;
#X connect 3 0 1 0;
#X connect 4 0 5 0;
#X connect 5 0 3 0;
#X restore 413 925 pd LeftPot;
#N canvas 0 22 450 300 barkSettings 0;
#X obj 52 261 s bark;
#X msg 72 130 mask 4 0.75;
#X msg 112 210 filter_range 0 20;
#X msg 52 90 thresh 7.5 9;
#X obj 113 11 loadbang;
#X msg 92 170 debounce 300;
#X connect 1 0 0 0;
#X connect 2 0 0 0;
#X connect 3 0 0 0;
#X connect 4 0 3 0;
#X connect 4 0 1 0;
#X connect 4 0 5 0;
#X connect 4 0 2 0;
#X connect 5 0 0 0;
#X restore 13 619 pd barkSettings;
#X text 111 619 Initiallises [bark~] settings;
#X obj 414 280 s Rec;
#X obj 927 356 s Bank++;
#X obj 1123 362 s Bank++;
#N canvas 0 22 411 208 sensorToggle 0;
#X obj 101 49 inlet;
#X obj 101 101 spigot, f 20;
#X obj 101 123 outlet;
#X obj 218 50 r sensorToggle;
#X obj 218 72 tgl 15 0 empty empty empty 17 7 0 10 -262144 -1 -1 1
1;
#X connect 0 0 1 0;
#X connect 1 0 2 0;
#X connect 3 0 4 0;
#X connect 4 0 1 1;
#X restore 638 502 pd sensorToggle;
#X obj 638 524 s MULT;
#N canvas 0 22 411 208 sensorToggle 0;
#X obj 101 49 inlet;
#X obj 101 101 spigot, f 20;
#X obj 101 123 outlet;
#X obj 218 50 r sensorToggle;
#X obj 218 72 tgl 15 0 empty empty empty 17 7 0 10 -262144 -1 -1 1
1;
#X connect 0 0 1 0;
#X connect 1 0 2 0;
#X connect 3 0 4 0;
#X connect 4 0 1 1;
#X restore 414 505 pd sensorToggle;
#X obj 414 527 s PBS;
#X obj 417 647 s A;
#N canvas 0 22 411 208 sensorToggle 0;
#X obj 101 49 inlet;
#X obj 101 101 spigot, f 20;
#X obj 101 123 outlet;
#X obj 218 50 r sensorToggle;
#X obj 218 72 tgl 15 0 empty empty empty 17 7 0 10 -262144 -1 -1 1
1;
#X connect 0 0 1 0;
#X connect 1 0 2 0;
#X connect 3 0 4 0;
#X connect 4 0 1 1;
#X restore 417 627 pd sensorToggle;
#N canvas 0 23 450 300 ADSR 0;
#X obj 27 94 -~;
#X obj 27 49 inlet~;
#X obj 52 99 r ADSRDiv;
#X obj 43 71 r ADSRMin;
#X obj 27 116 /~;
#X obj 27 138 snapshot~;
#X obj 120 121 bang~;
#X obj 27 163 outlet;
#X connect 0 0 4 0;
#X connect 1 0 0 0;
#X connect 2 0 4 1;
#X connect 3 0 0 1;
#X connect 4 0 5 0;
#X connect 5 0 7 0;
#X connect 6 0 5 0;
#X restore 637 605 pd ADSR;
#N canvas 0 22 411 208 sensorToggle 0;
#X obj 101 49 inlet;
#X obj 101 101 spigot, f 20;
#X obj 101 123 outlet;
#X obj 218 50 r sensorToggle;
#X obj 218 72 tgl 15 0 empty empty empty 17 7 0 10 -262144 -1 -1 1
1;
#X connect 0 0 1 0;
#X connect 1 0 2 0;
#X connect 3 0 4 0;
#X connect 4 0 1 1;
#X restore 637 626 pd sensorToggle;
#N canvas 0 23 450 300 ADSR 0;
#X obj 27 94 -~;
#X obj 27 49 inlet~;
#X obj 52 99 r ADSRDiv;
#X obj 43 71 r ADSRMin;
#X obj 27 116 /~;
#X obj 27 138 snapshot~;
#X obj 120 121 bang~;
#X obj 27 163 outlet;
#X connect 0 0 4 0;
#X connect 1 0 0 0;
#X connect 2 0 4 1;
#X connect 3 0 0 1;
#X connect 4 0 5 0;
#X connect 5 0 7 0;
#X connect 6 0 5 0;
#X restore 837 595 pd ADSR;
#N canvas 0 22 411 208 sensorToggle 0;
#X obj 101 49 inlet;
#X obj 101 101 spigot, f 20;
#X obj 101 123 outlet;
#X obj 218 50 r sensorToggle;
#X obj 218 72 tgl 15 0 empty empty empty 17 7 0 10 -262144 -1 -1 1
1;
#X connect 0 0 1 0;
#X connect 1 0 2 0;
#X connect 3 0 4 0;
#X connect 4 0 1 1;
#X restore 837 616 pd sensorToggle;
#N canvas 0 23 450 300 ADSR 0;
#X obj 27 94 -~;
#X obj 27 49 inlet~;
#X obj 52 99 r ADSRDiv;
#X obj 43 71 r ADSRMin;
#X obj 27 116 /~;
#X obj 27 138 snapshot~;
#X obj 120 121 bang~;
#X obj 27 163 outlet;
#X connect 0 0 4 0;
#X connect 1 0 0 0;
#X connect 2 0 4 1;
#X connect 3 0 0 1;
#X connect 4 0 5 0;
#X connect 5 0 7 0;
#X connect 6 0 5 0;
#X restore 1047 597 pd ADSR;
#N canvas 0 22 411 208 sensorToggle 0;
#X obj 101 49 inlet;
#X obj 101 101 spigot, f 20;
#X obj 101 123 outlet;
#X obj 218 50 r sensorToggle;
#X obj 218 72 tgl 15 0 empty empty empty 17 7 0 10 -262144 -1 -1 1
1;
#X connect 0 0 1 0;
#X connect 1 0 2 0;
#X connect 3 0 4 0;
#X connect 4 0 1 1;
#X restore 1047 618 pd sensorToggle;
#X obj 637 646 s D;
#X obj 837 636 s S;
#X obj 1047 638 s R;
#X obj 413 737 env~;
#X obj 836 754 bng 15 250 50 0 empty empty empty 17 7 0 10 -262144
-1 -1;
#X obj 836 733 bark~;
#X obj 903 711 r bark;
#X obj 836 773 s Piezo;
#N canvas 0 22 411 208 sensorToggle 0;
#X obj 101 49 inlet;
#X obj 101 101 spigot, f 20;
#X obj 101 123 outlet;
#X obj 218 50 r sensorToggle;
#X obj 218 72 tgl 15 0 empty empty empty 17 7 0 10 -262144 -1 -1 1
1;
#X connect 0 0 1 0;
#X connect 1 0 2 0;
#X connect 3 0 4 0;
#X connect 4 0 1 1;
#X restore 413 758 pd sensorToggle;
#X obj 413 778 s anal-pressure;
#X obj 532 753 bng 15 250 50 0 empty empty empty 17 7 0 10 -262144
-1 -1;
#N canvas 0 22 411 208 sensorToggle 0;
#X obj 101 49 inlet;
#X obj 101 101 spigot, f 20;
#X obj 101 123 outlet;
#X obj 218 50 r sensorToggle;
#X obj 218 72 tgl 15 0 empty empty empty 17 7 0 10 -262144 -1 -1 1
1;
#X connect 0 0 1 0;
#X connect 1 0 2 0;
#X connect 3 0 4 0;
#X connect 4 0 1 1;
#X restore 532 771 pd sensorToggle;
#X obj 413 970 s MicGain;
#X obj 638 969 s Gain;
#X text 413 125 DIGITAL I/0;
#X text 411 389 ANALOG I/0;
#N canvas 0 22 411 208 sensorToggle 0;
#X obj 101 49 inlet;
#X obj 101 101 spigot, f 20;
#X obj 101 123 outlet;
#X obj 218 50 r sensorToggle;
#X obj 218 72 tgl 15 0 empty empty empty 17 7 0 10 -262144 -1 -1 1
1;
#X connect 0 0 1 0;
#X connect 1 0 2 0;
#X connect 3 0 4 0;
#X connect 4 0 1 1;
#X restore 414 231 pd sensorToggle;
#N canvas 0 22 411 208 sensorToggle 0;
#X obj 101 49 inlet;
#X obj 101 101 spigot, f 20;
#X obj 101 123 outlet;
#X obj 218 50 r sensorToggle;
#X obj 218 72 tgl 15 0 empty empty empty 17 7 0 10 -262144 -1 -1 1
1;
#X connect 0 0 1 0;
#X connect 1 0 2 0;
#X connect 3 0 4 0;
#X connect 4 0 1 1;
#X restore 619 218 pd sensorToggle;
#N canvas 0 22 411 208 sensorToggle 0;
#X obj 101 49 inlet;
#X obj 101 101 spigot, f 20;
#X obj 101 123 outlet;
#X obj 218 50 r sensorToggle;
#X obj 218 72 tgl 15 0 empty empty empty 17 7 0 10 -262144 -1 -1 1
1;
#X connect 0 0 1 0;
#X connect 1 0 2 0;
#X connect 3 0 4 0;
#X connect 4 0 1 1;
#X restore 927 213 pd sensorToggle;
#N canvas 0 22 411 208 sensorToggle 0;
#X obj 101 49 inlet;
#X obj 101 101 spigot, f 20;
#X obj 101 123 outlet;
#X obj 218 50 r sensorToggle;
#X obj 218 72 tgl 15 0 empty empty empty 17 7 0 10 -262144 -1 -1 1
1;
#X connect 0 0 1 0;
#X connect 1 0 2 0;
#X connect 3 0 4 0;
#X connect 4 0 1 1;
#X restore 1123 213 pd sensorToggle;
#X obj 707 9 inlet;
#X obj 707 31 s sensorToggle;
#X text 631 56 used to turn the seonsor Readings on and off;
#X obj 532 791 s Trigger;
#N canvas 0 22 411 208 sensorToggle 0;
#X obj 101 49 inlet;
#X obj 101 101 spigot, f 20;
#X obj 101 123 outlet;
#X obj 218 50 r sensorToggle;
#X obj 218 72 tgl 15 0 empty empty empty 17 7 0 10 -262144 -1 -1 1
1;
#X connect 0 0 1 0;
#X connect 1 0 2 0;
#X connect 3 0 4 0;
#X connect 4 0 1 1;
#X restore 638 947 pd sensorToggle;
#N canvas 0 22 411 208 sensorToggle 0;
#X obj 101 49 inlet;
#X obj 101 101 spigot, f 20;
#X obj 101 123 outlet;
#X obj 218 50 r sensorToggle;
#X obj 218 72 tgl 15 0 empty empty empty 17 7 0 10 -262144 -1 -1 1
1;
#X connect 0 0 1 0;
#X connect 1 0 2 0;
#X connect 3 0 4 0;
#X connect 4 0 1 1;
#X restore 413 946 pd sensorToggle;
#X connect 0 0 98 0;
#X connect 1 0 92 0;
#X connect 2 0 112 0;
#X connect 3 0 114 0;
#X connect 4 0 116 0;
#X connect 11 0 59 0;
#X connect 12 0 134 0;
#X connect 13 0 97 0;
#X connect 14 1 15 0;
#X connect 15 0 16 0;
#X connect 16 0 42 0;
#X connect 16 0 58 0;
#X connect 17 0 135 0;
#X connect 18 0 93 0;
#X connect 18 0 121 0;
#X connect 19 0 123 0;
#X connect 38 0 40 0;
#X connect 38 0 41 0;
#X connect 39 0 104 0;
#X connect 40 0 39 0;
#X connect 41 0 40 1;
#X connect 44 0 46 0;
#X connect 44 0 47 0;
#X connect 45 0 105 0;
#X connect 46 0 45 0;
#X connect 47 0 46 1;
#X connect 49 0 136 0;
#X connect 50 0 137 0;
#X connect 56 0 100 0;
#X connect 57 0 99 0;
#X connect 59 0 10 0;
#X connect 85 0 103 0;
#X connect 92 0 111 0;
#X connect 93 0 128 0;
#X connect 94 0 93 0;
#X connect 95 0 44 0;
#X connect 95 0 51 0;
#X connect 96 0 38 0;
#X connect 97 0 108 0;
#X connect 98 0 106 0;
#X connect 99 0 142 0;
#X connect 100 0 143 0;
#X connect 106 0 107 0;
#X connect 108 0 109 0;
#X connect 111 0 110 0;
#X connect 112 0 113 0;
#X connect 113 0 118 0;
#X connect 114 0 115 0;
#X connect 115 0 119 0;
#X connect 116 0 117 0;
#X connect 117 0 120 0;
#X connect 121 0 126 0;
#X connect 122 0 125 0;
#X connect 123 0 122 0;
#X connect 124 0 123 0;
#X connect 126 0 127 0;
#X connect 128 0 129 0;
#X connect 129 0 141 0;
#X connect 134 0 85 0;
#X connect 135 0 14 0;
#X connect 136 0 96 0;
#X connect 137 0 95 0;
#X connect 138 0 139 0;
#X connect 142 0 131 0;
#X connect 143 0 130 0;
#X restore 244 113 pd BELA;
#X obj 12 14 cnv 15 15 140 empty empty empty 20 12 0 14 -228856 -66577
0;
#X text 33 14 INIT / MISC \; ~~~~~~~~~~~~;
#N canvas 0 22 450 300 TglSwp 0;
#X obj 73 99 * -1;
#X obj 73 121 + 1;
#X obj 73 79 tgl 15 0 empty empty empty 17 7 0 10 -262144 -1 -1 0 1
;
#X obj 73 143 tgl 15 0 empty empty empty 17 7 0 10 -262144 -1 -1 0
1;
#X obj 73 54 inlet;
#X obj 73 163 outlet;
#X connect 0 0 1 0;
#X connect 1 0 3 0;
#X connect 2 0 0 0;
#X connect 3 0 5 0;
#X connect 4 0 2 0;
#X restore 382 108 pd TglSwp;
#X text 518 35 OnsetTable;
#X floatatom 150 238 5 0 0 0 - - -, f 5;
#X text 186 239 Current Bank Num;
#X obj 1056 446 r lb;
#X obj 1056 468 del 1000;
#X msg 1056 490 0;
#X text 1091 494 load the linital bank;
#X obj 33 604 expr 44100 / $f1;
#X obj 127 627 s PBF;
#X text 138 591 calculate the natural playback \; frequency for the
[phasor~] \;;
#X obj 33 580 r sampleSize;
#X obj 848 661 t f b;
#X obj 706 705 t f b;
#X text 272 1065 analyse the signal;
#X obj 121 1066 bfcc~ 128 0.5;
#X text 29 1878 USING A [PHASOR~] TO SCRUB THROUGH \; THE SAMPLE BANK
\; ~~~~~~~~~~~~~~~~~~~~~~~~~~~~~~~~~~~;
#X obj 1632 991 metro 300;
#X msg 1671 1107 \; greenCanvas color 1;
#X msg 1632 1155 \; greenCanvas color 16;
#X floatatom 1785 901 5 0 0 0 - - -, f 5;
#X text 1785 918 current temp;
#X obj 1632 1058 moses 1;
#X obj 1632 1033 tgl 15 0 empty empty empty 17 7 0 10 -262144 -1 -1
1 1;
#X obj 86 898 r Recer;
#N canvas 350 29 1324 684 MIDI 0;
#X obj 30 302 notein;
#N canvas 0 22 450 300 PBSMath 0;
#X obj 7 83 / 127;
#X obj 7 59 inlet;
#X obj 7 127 - 1;
#X obj 7 105 * 2;
#X obj 7 149 outlet;
#X text 62 84 Convert from Midi 0-127 To Value between 0 & 1;
#X text 62 122 output values between -1 & 1 to facilitate playback
between \; the normal playback speed and reverse playback;
#X text 6 16 Play Back Speed (PBS);
#X connect 0 0 3 0;
#X connect 1 0 0 0;
#X connect 2 0 4 0;
#X connect 3 0 2 0;
#X restore 507 139 pd PBSMath;
#N canvas 0 22 450 300 MultMath 0;
#X obj 7 73 / 127;
#X obj 7 49 inlet;
#X obj 7 144 outlet;
#X text 48 74 Convert from Midi 0-127 To Value between 0 & 1;
#X obj 7 117 + 1;
#X obj 7 95 * 9;
#X text 52 110 output values between 1 & 10 \; The final PBS of samples
\; will be the product of this number and the PBS input \;;
#X text 7 11 PBS Multiplier (MULT);
#X connect 0 0 5 0;
#X connect 1 0 0 0;
#X connect 4 0 2 0;
#X connect 5 0 4 0;
#X restore 585 139 pd MultMath;
#X obj 33 104 ctlin 1 1;
#X obj 111 104 ctlin 2 1;
#X obj 189 104 ctlin 3 1;
#X obj 267 104 ctlin 4 1;
#N canvas 0 22 450 300 A-Math 0;
#X obj 6 47 / 127;
#X floatatom 6 69 5 0 0 0 - - -, f 5;
#X obj 6 88 * 1000;
#X obj 6 24 inlet;
#X obj 6 118 outlet;
#X text 46 48 Convert from Midi 0-127 To Value between 0 & 1;
#X text 55 105 Output Value between 0 - 1000 to be used as Attack time
in Milliseconds;
#X connect 0 0 1 0;
#X connect 1 0 2 0;
#X connect 2 0 4 0;
#X connect 3 0 0 0;
#X restore 33 141 pd A-Math;
#N canvas 0 22 450 300 D-Math 0;
#X obj 6 47 / 127;
#X floatatom 6 69 5 0 0 0 - - -, f 5;
#X obj 6 88 * 1000;
#X obj 6 24 inlet;
#X obj 6 118 outlet;
#X text 46 48 Convert from Midi 0-127 To Value between 0 & 1;
#X text 55 105 Output Value between 0 - 1000 to be used as Decay time
in Milliseconds;
#X connect 0 0 1 0;
#X connect 1 0 2 0;
#X connect 2 0 4 0;
#X connect 3 0 0 0;
#X restore 111 141 pd D-Math;
#N canvas 0 22 450 300 S-Math 0;
#X obj 6 47 / 127;
#X floatatom 6 69 5 0 0 0 - - -, f 5;
#X obj 6 24 inlet;
#X obj 6 118 outlet;
#X text 46 48 Convert from Midi 0-127 To Value between 0 & 1;
#X text 51 101 Output Value between 0 and 1 which will determine the
volume of the sustained sample \, as a ratio of the max volume \, after
the decay period \; 1 being full volume and 0 being no sustain;
#X connect 0 0 1 0;
#X connect 1 0 3 0;
#X connect 2 0 0 0;
#X restore 189 141 pd S-Math;
#N canvas 0 22 450 300 R-Math 0;
#X obj 6 24 inlet;
#X obj 6 118 outlet;
#X obj 6 49 / 127;
#X floatatom 6 71 5 0 0 0 - - -, f 5;
#X obj 6 90 * 10000;
#X text 46 48 Convert from Midi 0-127 To Value between 0 & 1;
#X text 57 86 output value between 1 & 10000 as the time in ms it takes
for the sample fading to 0 volume after the note nas been released
;
#X connect 0 0 2 0;
#X connect 2 0 3 0;
#X connect 3 0 4 0;
#X connect 4 0 1 0;
#X restore 267 141 pd R-Math;
#X text 34 78 A;
#X text 112 82 D;
#X text 191 83 S;
#X text 271 82 R;
#X text 507 83 PBS;
#X text 583 83 MULT;
#X text 415 83 Mic Gain;
#N canvas 0 23 450 300 Mic-Math 0;
#X obj 7 83 / 127;
#X text 62 84 Convert from Midi 0-127 To Value between 0 & 1;
#X obj 7 53 inlet;
#X obj 7 106 * 1.2;
#X obj 7 128 outlet;
#X text 62 110 output value between 0 & 1.2 as an output gain control
for the Mic \, this doesnt change the input volume of the Mic \, just
the ammount that it can be heard.;
#X connect 0 0 3 0;
#X connect 2 0 0 0;
#X connect 3 0 4 0;
#X restore 417 139 pd Mic-Math;
#X text 32 10 MIDI;
#X text 31 49 MIDI CONTROL INS;
#X text 29 233 MIDI NOTE INS;
#X text 28 271 RECORD I/O;
#X obj 465 306 notein;
#X obj 465 345 spigot;
#X obj 497 328 tgl 15 0 empty empty empty 17 7 0 10 -262144 -1 -1 0
1;
#X obj 580 307 notein;
#X obj 580 346 spigot;
#X obj 612 329 tgl 15 0 empty empty empty 17 7 0 10 -262144 -1 -1 0
1;
#X text 461 269 BANK--;
#X text 576 270 BANK++;
#X floatatom 613 394 5 0 0 0 - - -, f 5;
#X floatatom 498 393 5 0 0 0 - - -, f 5;
#X text 792 104 << Change these inputs to map to different MIDI controls
;
#X text 653 393 < < change these numbers to change the midi note that
triggers each function;
#X obj 33 178 s A;
#X obj 111 178 s D;
#X obj 189 178 s S;
#X obj 267 178 s R;
#X obj 417 176 s MicGain;
#X obj 507 176 s PBS;
#X obj 30 433 s Rec;
#X obj 465 434 s Bank--;
#X obj 580 435 s Bank++;
#X obj 465 412 sel 42;
#X obj 580 413 sel 43;
#X obj 30 412 sel 40;
#X floatatom 63 390 5 0 0 0 - - -, f 5;
#X obj 347 306 notein;
#X obj 347 345 spigot;
#X obj 379 328 tgl 15 0 empty empty empty 17 7 0 10 -262144 -1 -1 0
1;
#X obj 347 412 sel 36;
#X text 343 269 TRIGGER;
#X floatatom 380 393 5 0 0 0 - - -, f 5;
#X obj 246 304 notein;
#X obj 246 343 spigot;
#X obj 278 326 tgl 15 0 empty empty empty 17 7 0 10 -262144 -1 -1 0
1;
#X floatatom 279 391 5 0 0 0 - - -, f 5;
#X obj 128 304 notein;
#X obj 128 343 spigot;
#X obj 160 326 tgl 15 0 empty empty empty 17 7 0 10 -262144 -1 -1 0
1;
#X floatatom 161 391 5 0 0 0 - - -, f 5;
#X text 248 274 MODE;
#X text 118 273 TempoTap;
#X obj 128 410 sel 38;
#X obj 246 410 sel 39;
#X obj 585 176 s MULT;
#X obj 417 102 ctlin 5 1;
#N canvas 0 22 450 300 Gain-Math 0;
#X obj 7 83 / 127;
#X text 62 84 Convert from Midi 0-127 To Value between 0 & 1;
#X obj 7 53 inlet;
#X obj 7 106 * 1.2;
#X obj 7 128 outlet;
#X text 62 110 output value between 0 & 1.2 as a gain control for the
Sampler;
#X connect 0 0 3 0;
#X connect 2 0 0 0;
#X connect 3 0 4 0;
#X restore 675 139 pd Gain-Math;
#X text 673 83 Sampler Gain;
#X obj 675 176 s Gain;
#X obj 675 102 ctlin 8 1;
#X obj 585 102 ctlin 7 1;
#X obj 507 102 ctlin 6 1;
#X floatatom 59 343 5 0 0 0 - - -, f 5;
#X obj 246 432 s Mode;
#X obj 347 434 s Trigger;
#X obj 128 432 s tempoCol;
#X connect 0 0 46 0;
#X connect 0 0 74 0;
#X connect 1 0 40 0;
#X connect 2 0 66 0;
#X connect 3 0 7 0;
#X connect 4 0 8 0;
#X connect 5 0 9 0;
#X connect 6 0 10 0;
#X connect 7 0 35 0;
#X connect 8 0 36 0;
#X connect 9 0 37 0;
#X connect 10 0 38 0;
#X connect 18 0 39 0;
#X connect 23 0 24 0;
#X connect 23 1 25 0;
#X connect 24 0 44 0;
#X connect 25 0 24 1;
#X connect 26 0 27 0;
#X connect 26 1 28 0;
#X connect 27 0 45 0;
#X connect 28 0 27 1;
#X connect 31 0 45 1;
#X connect 32 0 44 1;
#X connect 44 0 42 0;
#X connect 45 0 43 0;
#X connect 46 0 41 0;
#X connect 47 0 46 1;
#X connect 48 0 49 0;
#X connect 48 1 50 0;
#X connect 49 0 51 0;
#X connect 50 0 49 1;
#X connect 51 0 76 0;
#X connect 53 0 51 1;
#X connect 54 0 55 0;
#X connect 54 1 56 0;
#X connect 55 0 65 0;
#X connect 56 0 55 1;
#X connect 57 0 65 1;
#X connect 58 0 59 0;
#X connect 58 1 60 0;
#X connect 59 0 64 0;
#X connect 60 0 59 1;
#X connect 61 0 64 1;
#X connect 64 0 77 0;
#X connect 65 0 75 0;
#X connect 67 0 18 0;
#X connect 68 0 70 0;
#X connect 71 0 68 0;
#X connect 72 0 2 0;
#X connect 73 0 1 0;
#X restore 304 112 pd MIDI;
#X connect 0 0 118 0;
#X connect 0 0 4 0;
#X connect 2 0 0 0;
#X connect 2 1 1 0;
#X connect 3 0 0 0;
#X connect 7 0 102 0;
#X connect 7 1 264 0;
#X connect 8 0 15 0;
#X connect 9 0 24 0;
#X connect 10 0 9 0;
#X connect 11 0 48 0;
#X connect 12 0 8 0;
#X connect 15 0 81 0;
#X connect 16 0 9 1;
#X connect 19 0 20 0;
#X connect 20 0 21 0;
#X connect 24 0 26 0;
#X connect 24 0 69 0;
#X connect 25 0 24 1;
#X connect 26 0 27 0;
#X connect 27 0 28 0;
#X connect 30 0 47 1;
#X connect 31 0 7 0;
#X connect 31 0 29 0;
#X connect 31 0 102 0;
#X connect 31 0 264 0;
#X connect 32 0 43 0;
#X connect 32 0 33 0;
#X connect 32 0 165 0;
#X connect 33 0 44 0;
#X connect 34 0 39 1;
#X connect 35 0 37 0;
#X connect 36 0 39 0;
#X connect 37 0 40 1;
#X connect 38 0 37 1;
#X connect 39 0 52 0;
#X connect 39 0 226 0;
#X connect 40 0 42 0;
#X connect 41 0 40 0;
#X connect 43 0 35 0;
#X connect 44 0 34 0;
#X connect 45 0 32 0;
#X connect 46 0 15 0;
#X connect 47 0 14 1;
#X connect 47 0 14 0;
#X connect 48 0 10 0;
#X connect 49 0 262 0;
#X connect 50 0 91 0;
#X connect 51 0 26 0;
#X connect 52 1 53 0;
#X connect 53 0 55 0;
#X connect 54 0 57 0;
#X connect 55 0 56 0;
#X connect 56 0 54 0;
#X connect 66 0 2 0;
#X connect 67 0 93 0;
#X connect 68 0 31 0;
#X connect 68 1 31 0;
#X connect 69 0 87 0;
#X connect 71 0 2 1;
#X connect 74 0 227 0;
#X connect 74 0 67 0;
#X connect 74 0 95 0;
#X connect 74 0 251 0;
#X connect 82 0 9 0;
#X connect 83 0 50 0;
#X connect 86 0 150 0;
#X connect 92 0 15 0;
#X connect 102 0 147 0;
#X connect 102 0 72 0;
#X connect 106 0 107 0;
#X connect 106 0 113 0;
#X connect 107 0 111 0;
#X connect 108 0 110 0;
#X connect 108 1 109 0;
#X connect 109 0 111 1;
#X connect 110 0 111 1;
#X connect 111 0 108 0;
#X connect 111 0 112 0;
#X connect 112 0 113 0;
#X connect 112 0 114 0;
#X connect 113 0 106 1;
#X connect 116 0 110 1;
#X connect 117 0 107 1;
#X connect 117 0 116 0;
#X connect 123 0 111 0;
#X connect 124 0 106 0;
#X connect 125 0 49 0;
#X connect 126 0 261 0;
#X connect 128 0 133 0;
#X connect 129 0 133 1;
#X connect 130 0 133 2;
#X connect 131 0 133 3;
#X connect 132 0 134 1;
#X connect 133 0 136 0;
#X connect 134 0 137 0;
#X connect 135 0 134 0;
#X connect 136 0 138 0;
#X connect 137 0 138 0;
#X connect 138 0 151 0;
#X connect 139 0 128 0;
#X connect 139 1 128 1;
#X connect 139 1 135 0;
#X connect 140 0 132 0;
#X connect 141 0 131 0;
#X connect 142 0 130 0;
#X connect 143 0 129 0;
#X connect 150 0 168 0;
#X connect 152 0 150 1;
#X connect 153 0 32 0;
#X connect 164 0 47 0;
#X connect 166 0 41 0;
#X connect 167 0 133 0;
#X connect 168 0 14 0;
#X connect 168 0 14 1;
#X connect 169 0 168 1;
#X connect 171 0 172 0;
#X connect 172 0 173 0;
#X connect 173 0 174 0;
#X connect 174 0 176 0;
#X connect 174 0 134 0;
#X connect 175 0 177 0;
#X connect 177 0 173 1;
#X connect 179 0 46 0;
#X connect 180 0 181 1;
#X connect 181 0 183 0;
#X connect 181 0 184 0;
#X connect 183 0 182 0;
#X connect 184 0 185 0;
#X connect 185 0 216 0;
#X connect 186 0 188 1;
#X connect 187 0 188 0;
#X connect 188 0 186 0;
#X connect 188 0 219 0;
#X connect 189 0 196 0;
#X connect 189 0 192 0;
#X connect 190 0 218 0;
#X connect 191 0 195 0;
#X connect 191 0 194 0;
#X connect 192 0 220 0;
#X connect 193 0 195 1;
#X connect 194 0 193 0;
#X connect 195 0 220 0;
#X connect 196 0 197 0;
#X connect 197 0 192 1;
#X connect 198 0 266 1;
#X connect 199 0 202 0;
#X connect 200 0 217 0;
#X connect 200 0 272 0;
#X connect 201 0 199 0;
#X connect 201 1 198 0;
#X connect 201 3 269 0;
#X connect 202 0 266 0;
#X connect 207 0 210 0;
#X connect 208 0 209 0;
#X connect 209 0 183 1;
#X connect 210 0 184 1;
#X connect 212 0 202 1;
#X connect 212 0 266 0;
#X connect 213 0 212 0;
#X connect 214 0 201 0;
#X connect 215 0 222 0;
#X connect 218 0 191 0;
#X connect 219 0 189 0;
#X connect 219 0 190 0;
#X connect 220 0 206 0;
#X connect 220 1 205 0;
#X connect 220 2 211 0;
#X connect 222 0 187 0;
#X connect 222 1 187 0;
#X connect 222 2 187 0;
#X connect 224 0 187 0;
#X connect 225 0 181 0;
#X connect 225 0 180 0;
#X connect 227 0 19 0;
#X connect 228 0 31 1;
#X connect 229 0 231 0;
#X connect 231 0 230 0;
#X connect 237 0 238 0;
#X connect 239 0 237 0;
#X connect 239 0 243 0;
#X connect 241 0 246 0;
#X connect 242 0 241 0;
#X connect 244 0 245 0;
#X connect 245 0 241 0;
#X connect 253 0 254 0;
#X connect 254 0 255 0;
#X connect 255 0 114 0;
#X connect 257 0 258 0;
#X connect 257 0 8 0;
#X connect 260 0 257 0;
#X connect 261 0 49 1;
#X connect 261 1 49 0;
#X connect 262 0 50 1;
#X connect 262 1 50 0;
#X connect 264 0 147 1;
#X connect 266 0 200 0;
#X connect 271 0 268 0;
#X connect 271 1 267 0;
#X connect 272 0 271 0;
#X connect 273 0 228 0;
#X restore 796 1008 pd DoppleBangerGuts;
#X obj 673 346 bng 300 250 50 0 Trigger Trigger empty 17 7 0 10 -262144
-1 -1;
#X obj 516 134 mknob 80 100 0 1000 0 0 A A A 0 0 0 20 -99865 -262144
-1 0 1;
#X obj 670 134 mknob 80 100 0 1000 0 0 D D D 0 0 0 20 -99865 -262144
-1 0 1;
#X obj 853 134 mknob 80 100 0 1 0 0 S S S 0 0 1 20 -99865 -262144 -1
0 1;
#X obj 1029 134 mknob 80 100 0 10000 0 0 R R R 0 0 1 20 -99865 -262144
-1 0 1;
#X obj 331 347 mknob 80 100 0 1 0 0 MicGain MicGain Mic-Out 18 -9 1
11 -191407 -258113 -1 3555 1;
#X obj 1199 347 mknob 80 100 0 1.2 0 0 Gain Gain Sampler_Gain 6 -10
1 11 -191407 -4034 -1 0 1;
#X obj 543 348 vsl 80 295 -1 1 0 0 PBS PBS Playback_Speed -1 -9 1 11
-99865 -262144 -1 828 0;
#X obj 1023 348 vsl 80 295 1 10 0 0 MULT MULT Multiplier 18 -9 1 11
-99865 -262144 -1 3243 0;
#X obj 1189 680 bng 100 250 50 0 Mode Mode Mode 33 -10 1 15 -204786
-4034 -1;
#X obj 319 680 tgl 100 0 Recer Rec Rec 35 -10 1 15 -261234 -258113
-1 0 1;
#X obj 933 679 bng 40 250 50 0 Bank++ Bank++ Bank++ -5 50 0 15 -162280
-4034 -1;
#X obj 673 679 bng 40 250 50 0 Bank-- Bank-- Bank-- -5 50 0 15 -162280
-258113 -1;
#N canvas 0 22 450 300 stuff 0;
#N canvas 0 22 146 147 SliderMath 0;
#X obj 8 61 /;
#X obj 43 39 r sampleSize;
#X obj 8 81 * 100;
#X floatatom 8 103 5 0 0 0 - - -, f 5;
#X obj 8 12 r currentpos;
#X obj 8 122 outlet;
#X connect 0 0 2 0;
#X connect 1 0 0 1;
#X connect 2 0 3 0;
#X connect 3 0 5 0;
#X connect 4 0 0 0;
#X restore 22 23 pd SliderMath;
#X obj 22 45 s SliderMath;
#X obj 107 23 r currentpos;
#X floatatom 107 42 12 0 0 0 - - -, f 12;
#X obj 25 78 key;
#X obj 25 160 s TRGR;
#X obj 58 79 inlet;
#X obj 25 107 spigot;
#X obj 25 129 sel 32;
#X obj 204 123 r TempBlink;
#X obj 160 124 r;
#X obj 110 176 bng 15 250 50 0 empty empty empty 17 7 0 10 -258113
-1 -1;
#X obj 200 184 r Mode;
#X symbolatom 200 206 10 0 0 0 - - -, f 10;
#X obj 110 205 s changeMode;
#X obj 110 276 r CurrentTemp;
#X obj 110 253 s tempoTap;
#X obj 205 277 r TempBlink;
#X obj 110 231 bng 15 250 50 0 empty empty Bang_to_set_tempo 17 7 0
10 -258113 -1 -1;
#X obj 205 297 bng 15 250 50 0 empty empty empty 17 7 0 10 -4034 -1
-1;
#X text 222 297 temp (set LED blink);
#X obj 108 297 cnv 15 60 30 empty empty empty 20 12 0 14 -204786 -66577
0;
#X floatatom 110 304 5 0 0 0 - - -, f 5;
#X msg 64 304 120;
#X obj 64 283 r lb3;
#X connect 0 0 1 0;
#X connect 2 0 3 0;
#X connect 4 0 7 0;
#X connect 6 0 7 1;
#X connect 7 0 8 0;
#X connect 8 0 5 0;
#X connect 11 0 14 0;
#X connect 12 0 13 0;
#X connect 15 0 22 0;
#X connect 17 0 19 0;
#X connect 18 0 16 0;
#X connect 23 0 22 0;
#X connect 24 0 23 0;
#X restore 1204 178 pd stuff;
#X obj 1204 149 tgl 15 0 empty empty empty 17 7 0 10 -262144 -1 -1
0 1;
#X obj 339 135 tgl 100 0 midiMode empty empty 17 7 0 10 -204800 -1
-1 0 1;
#X obj 1220 805 bng 30 250 50 0 tempoTap tempoCol Tempo 0 -10 0 10
-262144 -1 -1;
#X obj 356 623 cnv 15 15 15 empty redCanvas empty 20 12 0 14 -233017
-66577 0;
#X obj 1232 624 cnv 15 15 15 empty greenCanvas empty 20 12 0 14 -166441
-66577 0;
#X text 327 109 toggle MIDI/GUI Mode;
#N canvas 0 22 450 278 (subpatch) 0;
#X array Sample 714580 float 2;
#X coords 0 1 714580 -1 700 80 2 0 0;
#X restore 468 822 graph;
#X obj 471 822 hsl 695 80 0 100 0 0 empty SliderMath empty -2 -8 0
10 -262144 -1 -1 69395 1;
#X text 1202 128 turn keyboard inputs on;
#X connect 17 0 16 0;
