#N canvas 0 23 1920 1151 10;
#X text 13 222 INSTRUCTIONS;
#X obj -8 2189 cnv 15 2000 600 empty empty empty 20 12 0 14 -262071
-66577 0;
#X obj -12 1434 cnv 15 2000 400 empty empty empty 20 12 0 14 -261558
-66577 0;
#X obj -8 2790 cnv 15 2000 500 empty empty empty 20 12 0 14 -217077
-66577 0;
#X obj -9 1788 cnv 15 2000 400 empty empty empty 20 12 0 14 -241024
-66577 0;
#X obj 549 1896 r bark-settings;
#X obj 549 1954 t f b;
#X obj 549 2054 * 44100;
#X obj 873 1971 bng 15 250 50 0 empty empty empty 17 7 0 10 -262144
-1 -1;
#X obj 873 2004 f;
#X obj 906 2004 + 1;
#X floatatom 874 2168 20 0 0 0 - - -, f 20;
#X obj 873 2092 mod \$2;
#X obj 549 2104 tabwrite attacks;
#X floatatom 785 2090 5 0 0 0 - - -, f 5;
#X obj 336 1834 bng 15 250 50 0 empty empty empty 17 7 0 10 -262144
-1 -1;
#X msg 336 1901 analyze;
#X floatatom 884 2127 5 0 0 0 - - -, f 5;
#X obj 399 1873 tgl 15 0 empty empty empty 17 7 0 10 -262144 -1 -1
1 1;
#X obj 399 1834 bng 15 250 50 0 empty empty empty 17 7 0 10 -262144
-1 -1;
#X obj 888 1950 r resetZero;
#X obj 873 2004 f;
#X obj 906 2004 + 1;
#N canvas 0 23 653 501 bangOnce 0;
#X obj 137 187 f;
#X obj 164 187 + 1;
#X obj 137 162 bng 15 250 50 0 empty empty empty 17 7 0 10 -262144
-1 -1;
#X obj 137 210 == 1;
#X msg 100 187 0;
#X obj 137 235 tgl 15 0 empty empty empty 17 7 0 10 -262144 -1 -1 1
1;
#X floatatom 99 211 5 0 0 0 - - -, f 5;
#X obj 104 255 spigot;
#X obj 37 185 loadbang;
#X obj 28 86 inlet;
#X obj 100 86 inlet;
#X obj 104 331 outlet;
#X obj 153 331 outlet;
#X obj 205 332 outlet;
#X text 250 100 [pd bangOnce] is a subPatch that only lets a single
bang through its left inlet out its first outlet no matter how many
times the left inlet is banged. It can be reset by sending a bang to
its right inlet. The middle outlet reports the number of times that
the left inlet has been banged overall. The far right outlet will output
either a 0 if bangOnce hasnt been banged yet \, or a 1 to indicate
that it has been banged and must be reset before another bang can be
let through.;
#X obj 104 282 t b b;
#X msg 205 302 1;
#X connect 0 0 1 0;
#X connect 0 0 3 0;
#X connect 0 0 6 0;
#X connect 1 0 0 1;
#X connect 2 0 0 0;
#X connect 2 0 7 0;
#X connect 3 0 5 0;
#X connect 4 0 0 0;
#X connect 4 0 13 0;
#X connect 5 0 7 1;
#X connect 7 0 15 0;
#X connect 8 0 4 0;
#X connect 9 0 2 0;
#X connect 10 0 4 0;
#X connect 15 0 11 0;
#X connect 15 1 16 0;
#X connect 16 0 13 0;
#X restore 336 1853 pd bangOnce;
#X obj 1366 2064 f, f 7;
#X obj 785 2129 s sampleMax;
#X obj 1405 2035 r sampleMax;
#X floatatom 1418 2066 5 0 0 0 - - -, f 5;
#X obj 399 1813 r resetOne;
#X obj 549 1918 bark channelL;
#X obj 339 2114 tabwrite marker;
#X msg 339 2090 1;
#X obj 339 2071 bng 15 250 50 0 empty empty empty 17 7 0 10 -262144
-1 -1;
#X obj 1366 2086 s NRT-BFCC;
#X obj 336 1813 r NRT-BRK;
#X text 170 2052 2.a;
#X text 566 1984 2.b;
#X text 595 2055 convert ms to samples;
#X text 565 1998 Record the positon of the onset \; within the sound
file (in samples) \; to [table attacks 1000].;
#X text 1432 1952 wait for all onsets to be recorded;
#X text 923 2128 Browse Onset Positions;
#X text 1366 1915 Record the overall No of samples & send to the \;
NRT-BFCC section;
#X text 910 2032 increment the postion \; of [tabwrite attacks] \;
in [table attacks 1000] \; for every onset \;;
#X text 168 2071 Write A Line Marker \; for every onset to be \; displayed
over the sound \; file in the GIU.;
#X obj 1119 2119 tabwrite attacks;
#X obj 1260 2075 r sampleMax;
#X obj 1212 2092 + 1;
#X obj 1134 2042 r sampleSize;
#X obj 1119 2069 f;
#X obj 1119 2091 - 1;
#X text 1367 1903 2.d;
#X text 1115 1856 2.c;
#X text 1114 1869 Add one more onset marker at the \; end of the sound
file so that the \; BFCC analyses the final sound;
#X obj 162 2053 cnv 15 3 80 empty empty empty 20 12 0 14 -262144 -66577
0;
#X obj 561 1975 cnv 15 3 70 empty empty empty 20 12 0 14 -262144 -66577
0;
#X obj 1360 1885 cnv 15 3 80 empty empty empty 20 12 0 14 -262144 -66577
0;
#X obj 1104 1844 cnv 15 3 80 empty empty empty 20 12 0 14 -262144 -66577
0;
#X obj 874 2144 tabread attacks;
#X obj 1225 2119 s NumberOfSamples;
#X text 7 1792 2 NRT Onset Detection;
#X obj 767 1616 soundfiler;
#X floatatom 767 1643 20 0 0 0 - - -, f 20;
#X obj 951 1657 s sampleSize;
#X text 834 1612 gets the size of the Sound File in Samples;
#X text 839 1706 sends bangs that reset the patch when \; a new sample
is loaded.;
#X text 895 1641 < size;
#X obj 767 1550 openpanel;
#X text 871 1739 delays the bang to start so the patch can reset;
#X obj 824 1760 s NRT-BRK;
#X text 8 1439 1.Sound File Selection;
#X obj 815 2675 nbx 5 28 -1e+37 1e+37 0 0 empty empty empty 0 -8 0
28 -257985 -1 -1 0 256;
#X obj 815 2609 timbreID;
#X obj 831 2651 r resetZero;
#X obj 815 2714 print timbre;
#X floatatom 944 2459 20 0 0 0 - - -, f 20;
#X floatatom 815 2460 20 0 0 0 - - -, f 20;
#X obj 815 2434 tabread attacks;
#X obj 944 2433 tabread attacks;
#X obj 867 2483 -;
#X obj 815 2500 pack;
#X msg 815 2524 analyze \$1 \$2;
#X obj 815 2548 bfcc channelL;
#X obj 944 2411 + 1;
#X floatatom 815 2397 5 0 0 0 - - -, f 5;
#X floatatom 815 2271 5 0 0 0 - - -, f 5;
#X obj 837 2578 r tID;
#X obj 815 2250 r NRT-BFCC;
#X text 882 2252 Recieve the No of samples from Bark;
#X text 896 2314 Output numbers all numbers from 0 to the No of deteced
onsets;
#X text 910 2525 anaylse the input file from the onset until the beggining
of the following onset to extract the BFCC for each detected sample
;
#X text 877 2609 store the feature data in timbreID;
#X text 958 2670 Reports the number \; of training instances that \;
have been received (starting at 0);
#X obj 844 2885 bng 15 250 50 0 empty empty empty 17 7 0 20 -4034 -1
-1;
#X obj 844 2928 bng 15 250 50 0 empty empty empty 17 7 0 10 -262144
-1 -1;
#X obj 907 2974 tgl 15 0 empty empty empty 17 7 0 10 -262144 -1 -1
0 1;
#X obj 907 2926 bng 15 250 50 0 empty empty empty 17 7 0 10 -262144
-1 -1;
#N canvas 0 23 450 300 bangOnce 0;
#X obj 156 -370 f;
#X obj 183 -370 + 1;
#X obj 156 -395 bng 15 250 50 0 empty empty empty 17 7 0 10 -262144
-1 -1;
#X obj 156 -347 == 1;
#X msg 119 -370 0;
#X obj 156 -322 tgl 15 0 empty empty empty 17 7 0 10 -262144 -1 -1
0 1;
#X floatatom 118 -346 5 0 0 0 - - -, f 5;
#X obj 123 -302 spigot;
#X obj 123 -278 bng 15 250 50 0 empty empty empty 17 7 0 10 -262144
-1 -1;
#X obj 56 -372 loadbang;
#X obj 47 -471 inlet;
#X obj 119 -471 inlet;
#X obj 123 -246 outlet;
#X obj 182 -246 outlet;
#X obj 234 -245 outlet;
#X connect 0 0 1 0;
#X connect 0 0 3 0;
#X connect 0 0 6 0;
#X connect 1 0 0 1;
#X connect 2 0 0 0;
#X connect 2 0 7 0;
#X connect 3 0 5 0;
#X connect 4 0 0 0;
#X connect 5 0 7 1;
#X connect 6 0 13 0;
#X connect 7 0 8 0;
#X connect 8 0 12 0;
#X connect 8 0 14 0;
#X connect 9 0 4 0;
#X connect 10 0 2 0;
#X connect 11 0 4 0;
#X connect 11 0 14 0;
#X restore 844 2952 pd bangOnce;
#X obj 907 2898 r resetOne;
#X obj 464 3211 print;
#X msg 464 3127 write data/binary\$1.timid;
#X obj 844 3059 f;
#X obj 872 3059 + 1;
#X obj 844 3059 f;
#X obj 872 3059 + 1;
#X floatatom 844 3083 5 0 0 0 - - -, f 5;
#X obj 844 2993 bng 15 250 50 0 empty empty empty 17 7 0 10 -262144
-1 -1;
#X obj 844 3160 print;
#X obj 501 3161 s tID;
#X msg 938 3008 \; c1 color 16;
#X text 936 2992 change the canvas colour;
#X text 842 3180 write the data in the [attacks table 1000] to a .txt
file;
#X obj 1079 3036 nbx 4 15 -1e+37 1e+37 0 0 empty empty empty 0 -8 0
12 -204786 -1 -1 0 256;
#X obj 1079 3016 r SetFileNumber;
#X msg 844 3127 \; attacks write data/table\$1.txt;
#X text 471 3178 tell timbereID to write its stored BFCC data into
a .timid binary file;
#X text 1 2798 4 File Writer;
#X text -2 2190 3 NRT BFCC Analysis;
#X text 12 383 2 \; The selected file will show up as a SOUND WAVE
in the pannels to thr right \, along with some VERTICAL LINES indicating
where the onset divisions are and the BLUE NUMBER BOX will display
the number of detected samples \;;
#X obj 431 235 cnv 15 1200 550 empty empty empty 20 12 0 14 -233280
-66577 0;
#N canvas 0 22 450 278 (subpatch) 0;
#X array channelL 714580 float 2;
#X coords 0 2 714580 -2 700 100 1 0 0;
#X restore 444 465 graph;
#N canvas 0 22 450 278 (subpatch) 0;
#X array marker 714580 float 2;
#X coords 0 0 714580 1 700 240 1 0 0;
#X restore 444 426 graph;
#N canvas 0 22 450 278 (subpatch) 0;
#X array channelR 714580 float 2;
#X coords 0 2 714580 -2 700 100 2 0 0;
#X restore 444 565 graph;
#X obj 782 275 cnv 15 365 70 empty c1 empty 20 12 0 14 -166441 -66577
0;
#X obj 444 276 bng 70 250 50 0 empty empty empty 17 7 1 10 -258113
-262144 -1;
#X obj 445 720 nbx 4 50 -1e+37 1e+37 0 0 empty empty empty 0 -8 0 28
-204800 -1 -1 15 256;
#X obj 445 693 r NumberOfSamples;
#X obj 1383 288 f;
#X obj 1411 288 + 1;
#X obj 1383 288 f;
#X obj 1411 288 + 1;
#X obj 1383 262 bng 15 250 50 0 empty empty empty 17 7 0 10 -204786
-1 -1;
#X obj 1383 311 nbx 4 50 -1e+37 1e+37 0 0 empty empty empty 0 -8 0
28 -204786 -1 -1 0 256;
#X text 1406 262 bang to easily increment;
#X obj 1209 311 nbx 4 50 -1e+37 1e+37 0 0 empty empty empty 0 -8 0
28 -261371 -1 -1 0 256;
#X obj 1383 371 s SetFileNumber;
#X text 13 623 IMPORTANT!;
#X text 444 238 DOPPELWRITER;
#X text 13 1096 Scroll Down For Writer GUTS;
#X text 13 312 1 \; Push the RED BUTTON to open the [openpanel] GUI
and from there select the wav/aiff file you wish to analyse.;
#X text 14 646 The PINK number will determine the name of your file
it increments each time you analyse a file but if you already have
files in your data folder that you don't want to overwrite you must
remember to change the GREEN number to one that is different to the
numbers currently in your 'data' folder.;
#X obj 1249 3159 soundfiler;
#X msg 1249 3136 write -wave data/sample\$1 channelL;
#X text 936 15 WRITER.PD;
#X text 13 250 Before you begin step one \, make sure this patch is
in a drectory that also contains a folder called "data" so this patch
knows where to write to \;;
#N canvas 215 48 579 422 exampleBank 0;
#X obj 231 70 soundfiler;
#X floatatom 231 92 0 0 0 0 - - -;
#N canvas 0 22 450 278 (subpatch) 0;
#X array 808-example 714580 float 2;
#X coords 0 1 714580 -1 500 140 1 0 0;
#X restore 30 241 graph;
#X obj 33 177 dac~;
#X obj 33 21 bng 15 250 50 0 empty empty empty 17 7 0 10 -262144 -1
-1;
#X obj 33 130 tabplay~ 808-example;
#X floatatom 83 178 5 0 0 0 - - -, f 5;
#X obj 83 157 env~;
#X obj 33 41 del 50;
#X text 120 178 env should output 0 in between samples;
#X msg 231 36 read -resize samples/example.wav 808-example \; pd dsp
1 \;;
#X connect 0 0 1 0;
#X connect 4 0 8 0;
#X connect 4 0 10 0;
#X connect 5 0 3 0;
#X connect 5 0 3 1;
#X connect 5 0 7 0;
#X connect 7 0 6 0;
#X connect 8 0 5 0;
#X connect 10 0 0 0;
#X restore 800 110 pd exampleBank;
#X text 891 112 <-- click for example of a good soundfile;
#X text 797 43 This patch can be used to generate new sample banks
for The DoppelBänger using any .WAV/.AIFF file. For the best results
use sound file where each sound can be heard clealy and sperately from
all the others;
#X text 797 140 Alternatively diseregard this advice entirely and just
see what happens. writer.pd is but a tool for you to express yourself.
Try using some of your favourite songs or load in an hour of pure \,
uninteruppted vynl crackle that you've recorded for some A U T H E
N T I C W A R M T H;
#X obj 767 1522 bng 15 250 50 0 empty empty PUSH_TO_START 17 7 1 10
-258113 -262144 -1;
#X obj 877 3080 + 1;
#X obj 564 276 bng 70 250 50 0 empty empty empty 17 7 1 10 -260737
-262144 -1;
#X obj 444 353 s PushToLoad;
#X obj 767 1498 r PushToLoad;
#X obj 564 353 s PushToAnalyse;
#X text 1380 238 SET NEXT FILE NUMBER;
#X text 842 2842 recive bang from GREEN BUTTON;
#X text 1209 238 CURRENT FILE NUMBER;
#X obj 877 3106 s CurrentFileNumber;
#X obj 1209 282 r CurrentFileNumber;
#X text 791 282 When the canvas behind this text is GREEN your files
have beem written \; \; You can start again from Step 1 to analyse
another file.;
#X obj -6 1135 cnv 15 2000 300 empty empty empty 20 12 0 14 -228856
-66577 0;
#X text 6 1150 INIT;
#X obj 515 1378 table attacks 10000;
#X msg 750 1216 tempo 2 msec;
#N canvas 635 99 450 300 reset 0;
#X msg 12 111 0;
#X obj 12 74 bng 15 250 50 0 empty empty empty 17 7 0 10 -262144 -1
-1;
#X msg 72 106 1;
#X obj 12 46 r reset;
#X obj 12 133 s resetZero;
#X obj 90 134 s resetOne;
#X obj 67 46 inlet;
#X connect 0 0 4 0;
#X connect 1 0 0 0;
#X connect 1 0 2 0;
#X connect 2 0 5 0;
#X connect 3 0 1 0;
#X connect 6 0 1 0;
#X restore 519 1184 pd reset;
#X obj 519 1166 bng 15 250 50 0 empty empty empty 17 7 0 10 -262144
-1 -1;
#X obj 519 1147 r reset;
#X obj 750 1160 r resetOne;
#X obj 656 1165 loadbang;
#X msg 750 1182 \; c1 color 1;
#X obj 952 1394 print;
#X obj 986 1199 r db;
#X obj 1147 1199 r th-;
#X obj 1200 1199 r th+;
#X obj 849 1160 r resetOne;
#X obj 849 1185 bng 15 250 50 0 empty empty empty 17 7 0 10 -262144
-1 -1;
#X obj 1200 1235 max;
#X obj 1147 1235 min;
#X obj 1040 1199 r maP;
#X obj 1093 1199 r maD;
#X obj 1308 1235 max;
#X obj 1254 1235 min;
#X obj 1254 1199 r fr-;
#X obj 1308 1199 r fr+;
#X obj 933 1288 print;
#N canvas 793 23 608 297 gate 0;
#X obj 246 25 inlet;
#X obj 246 42 tgl 15 0 empty empty empty 17 7 0 10 -262144 -1 -1 0
1;
#X obj 69 218 spigot;
#N canvas 0 22 450 300 TglSwp 0;
#X obj 73 99 * -1;
#X obj 73 121 + 1;
#X obj 73 79 tgl 15 0 empty empty empty 17 7 0 10 -262144 -1 -1 0 1
;
#X obj 73 143 tgl 15 0 empty empty empty 17 7 0 10 -262144 -1 -1 1
1;
#X obj 73 54 inlet;
#X obj 73 163 outlet;
#X connect 0 0 1 0;
#X connect 1 0 3 0;
#X connect 2 0 0 0;
#X connect 3 0 5 0;
#X connect 4 0 2 0;
#X restore 102 57 pd TglSwp;
#X obj 102 193 tgl 15 1 empty empty empty 17 7 0 10 -262144 -1 -1 1
1;
#X obj 213 218 spigot;
#X obj 69 240 outlet;
#X obj 213 240 outlet;
#X text 276 158 like [moses 1] expet that the left inlet can be used
to pass anything and turning the gate on or off does not send a bang
to either outlet;
#X text 277 65 sub patch that recives information from its left inlet
and passes it through its first or second outlet depending on the number
passed to its right inlet \; 0 = 1st outlet - 1 = 2nd outlet;
#X obj 115 176 loadbang;
#X obj 69 25 inlet;
#X connect 0 0 1 0;
#X connect 1 0 3 0;
#X connect 1 0 5 1;
#X connect 2 0 6 0;
#X connect 3 0 4 0;
#X connect 4 0 2 1;
#X connect 5 0 7 0;
#X connect 10 0 4 0;
#X connect 11 0 2 0;
#X connect 11 0 5 0;
#X restore 849 1266 pd gate;
#X floatatom 1211 524 5 0 0 0 - - -, f 5;
#X floatatom 1375 527 5 0 0 0 - - -, f 5;
#X floatatom 1429 527 5 0 0 0 - - -, f 5;
#X floatatom 1211 633 5 0 0 0 - - -, f 5;
#X floatatom 1269 633 5 0 0 0 - - -, f 5;
#X floatatom 1379 631 5 0 0 0 - - -, f 5;
#X floatatom 1436 631 5 0 0 0 - - -, f 5;
#X obj 1211 543 s db;
#X obj 1211 652 s th-;
#X obj 1269 652 s th+;
#X obj 1379 650 s fr-;
#X obj 1436 650 s fr+;
#X obj 1375 546 s maP;
#X obj 1429 546 s maD;
#X text 1210 616 Min;
#X text 1207 590 THRESHOLD;
#X text 1269 616 Max;
#X text 1375 584 FILTER RANGE;
#X text 1379 613 Min;
#X text 1437 613 Max;
#X text 1372 510 Period;
#X text 1427 508 Decay;
#X text 1207 507 Time (ms);
#X text 1208 482 DEBOUNCE;
#X text 1374 480 MASK;
#X text 1207 429 [BARK] Onset Detector Settings;
#X obj 1212 452 tgl 15 0 UserBarkSettingsTgl empty empty 17 7 0 10
-262144 -1 -1 0 1;
#X text 1231 452 Toggle user/deafualt settings;
#X text 1499 532 If the divisions appear to be off you can alter the
[bark~] objects settings here to tune the onset detection to your sound
file, f 21;
#X obj 888 1231 tgl 15 0 empty empty empty 17 7 0 10 -262144 -1 -1
0 1;
#X obj 933 1266 pack f f f f f f f f, f 63;
#X msg 932 1320 \; bark-settings debounce \$2 \; bark-settings mask
\$3 \$4 \; bark-settings thresh \$5 \$6 \; bark-settings filter_range
\$7 \$8 \;;
#X text 1250 3114 write the current sample to the data folder;
#N canvas 0 22 1294 1129 Instalation-Instructions 1;
#X text 78 884 <<<< TOTAL BANK NUMBER --- (change this to the desired
number of sample banks), f 80;
#X obj 46 860 loadbang;
#X obj 46 905 s TBankNum;
#X msg 46 883 12;
#X text 45 840 what to look for;
#X text 78 884 <<<< TOTAL BANK NUMBER --- (change this to the desired
number of sample banks), f 80;
#X obj 46 860 loadbang;
#X obj 46 905 s TBankNum;
#X msg 46 883 12;
#X text 45 840 what to look for;
#X text 36 22 How to use your new Sample Banks with The DoppelGänger:
;
#X text 37 49 You will need \; The DoppelGänger itself \; An Internet
connection and browser \; A micro USB to USB cable.;
#X text 38 135 1) Connecting to the Bela IDE:;
#X text 38 152 In order to upload your sample banks to The DoppelGänger
you will need to access the Bela IDE \, an integrated development environment
that runs the code used to power the whole sampler. \; \; If you’ve
obtained this patch by downloading it from The DoppelGänger and already
have access to the Bela IDE you can skip this step. If you haven’t
accessed the Bela Before can follow this guide to set up a connection
https://github.com/BelaPlatform/Bela/wiki/Getting-started-with-Bela.
\; \; Once you have installed the necessary drivers simply connect
the device to your computer via USB or otherwise & connect to the Bela
IDE by the entering http://192.168.7.2/ into the address box of your
web browser \;, f 83;
#X text 60 20 comment, f 192;
#X text 39 363 From the homepage of the BELA IDE \, use the sidebar
menu to navigate to the project file labeled "doppelbanger”;
#X text 39 346 2) Adding Your Banks:;
#X text 38 392 Once inside the project click the button labeled “add
files” and select the files from your 'data' folder to be added to
the project \;;
#X text 39 457 2.a) Replacing Existing Banks \;;
#X text 38 478 If the numbers at the end of your file named are within
the range 0 – 11 (i.e. the same as a preexisting bank) you will be
prompted to either stop the upload or to replace the current files.
Select replace and your new Banks will replace the old ones upon booting
The DoppelBänger. \;;
#X text 40 594 2.b) Adding Additional Banks \;;
#X text 41 611 If your file numbers are beyond the range of the existing
banks on the board then the files will simply be uploaded to the board.
;
#X text 43 729 Once you have opened the file \, open the subpatch called
[pd DoppelgängerGuts] and navigate to the section titled SAMPLE BANK
MANAGEMENT.;
#X text 42 783 Change the number in the message box labeled “TOTAL
BANK NUMBER” ( it will appear as shown in the example below ) to
your new total number of sample banks.;
#X text 42 948 Save the edited file and then reconnect to the Bela
IDE and replace the existing version of “_main.pd” in the 'doppelbanger'
project. The new banks should be installed and ready to use.;
#X text 41 653 To access them however you will need to first increase
the number of banks that The DoppelBänger will look for. This requires
you to use the "download file" option in the IDE to download "_main.pd"
from "doppelbanger" and open it in Pure Data on your computer.;
#X connect 1 0 3 0;
#X connect 3 0 2 0;
#X connect 6 0 8 0;
#X connect 8 0 7 0;
#X restore 36 850 pd Instalation-Instructions;
#X text 14 485 3 \; If you are happy with these onset divisions and
the current file number (check the PINK NUMBER BOX) you can the push
the GREEN BUTTON to send your analysis data over to the writer part
of the patch. \; If youve carried out each step correctly then the
GREY panel will turn GREEN indicating that the writer has the created
the correct files in your 'data' folder;
#X obj 888 1180 r UserBarkSettingsTgl;
#X obj 767 1706 t b b, f 10;
#X obj 824 1738 del 100;
#X obj 785 2013 r resetZero;
#X msg 1228 2058 1;
#X obj 1119 2009 t b b;
#X obj 1366 1951 delay 1500;
#X obj 1366 1974 bng 15 250 50 0 empty empty empty 17 7 0 10 -262144
-1 -1;
#X obj 767 1728 s reset;
#X obj 767 1689 bng 15 250 50 0 empty empty empty 17 7 0 10 -260097
-1 -1;
#X msg 767 1586 read -maxsize 4e+08 -resize \$1 channelL channelR marker
;
#X msg 815 2291 \$1 \$1;
#X obj 815 2354 i;
#X obj 815 2313 line 0 1;
#X msg 515 1343 \; attacks const 0;
#X obj 515 1321 r resetOne;
#X msg 656 1327 \; bark-settings debounce 600 \; bark-settings thresh
-5 12 \; bark-settings filter_range 0 47 \;;
#X obj 336 1875 delay 500;
#X msg 714 2296 1;
#X obj 714 2492 t b b;
#X obj 714 2470 r resetOne;
#X msg 741 2592 clear;
#X obj 1119 1934 delay 1000;
#X obj 1182 1960 r resetOne;
#X obj 1182 2006 tgl 15 0 empty empty empty 17 7 0 10 -262144 -1 -1
0 1;
#X obj 681 2588 print;
#X obj 1361 2362 line 0 1;
#X obj 1361 2384 i;
#X floatatom 1361 2455 5 0 0 0 - - -, f 5;
#X obj 1385 2407 print;
#X msg 1443 2307 1;
#X msg 1355 2282 200 199;
#N canvas 0 23 653 501 bangOnce 0;
#X obj 137 187 f;
#X obj 164 187 + 1;
#X obj 137 162 bng 15 250 50 0 empty empty empty 17 7 0 10 -262144
-1 -1;
#X obj 137 210 == 1;
#X msg 100 187 0;
#X obj 137 235 tgl 15 0 empty empty empty 17 7 0 10 -262144 -1 -1 0
1;
#X floatatom 99 211 5 0 0 0 - - -, f 5;
#X obj 104 255 spigot;
#X obj 37 185 loadbang;
#X obj 28 86 inlet;
#X obj 100 86 inlet;
#X obj 104 331 outlet;
#X obj 153 331 outlet;
#X obj 205 332 outlet;
#X text 250 100 [pd bangOnce] is a subPatch that only lets a single
bang through its left inlet out its first outlet no matter how many
times the left inlet is banged. It can be reset by sending a bang to
its right inlet. The middle outlet reports the number of times that
the left inlet has been banged overall. The far right outlet will output
either a 0 if bangOnce hasnt been banged yet \, or a 1 to indicate
that it has been banged and must be reset before another bang can be
let through.;
#X obj 104 282 t b b;
#X msg 205 302 1;
#X connect 0 0 1 0;
#X connect 0 0 3 0;
#X connect 0 0 6 0;
#X connect 1 0 0 1;
#X connect 2 0 0 0;
#X connect 2 0 7 0;
#X connect 3 0 5 0;
#X connect 4 0 0 0;
#X connect 4 0 13 0;
#X connect 5 0 7 1;
#X connect 7 0 15 0;
#X connect 8 0 4 0;
#X connect 9 0 2 0;
#X connect 10 0 4 0;
#X connect 15 0 11 0;
#X connect 15 1 16 0;
#X connect 16 0 13 0;
#X restore 1119 1983 pd bangOnce;
#X obj 675 276 bng 70 250 50 0 empty empty empty 17 7 1 10 -4034 -262144
-1;
#X obj 675 353 s PushToWrite;
#X obj 844 2862 r PushToWrite;
#X obj 457 1947 print;
#X obj 611 1672 r PushToAnalyse;
#X connect 5 0 29 0;
#X connect 6 0 7 0;
#X connect 6 1 8 0;
#X connect 7 0 13 0;
#X connect 7 0 30 1;
#X connect 7 0 32 0;
#X connect 8 0 9 0;
#X connect 9 0 10 0;
#X connect 9 0 12 0;
#X connect 9 0 14 0;
#X connect 10 0 9 1;
#X connect 10 0 12 1;
#X connect 12 0 57 0;
#X connect 14 0 13 1;
#X connect 14 0 25 0;
#X connect 15 0 23 0;
#X connect 16 0 29 0;
#X connect 17 0 57 0;
#X connect 19 0 23 1;
#X connect 20 0 9 1;
#X connect 21 0 22 0;
#X connect 22 0 21 1;
#X connect 23 0 238 0;
#X connect 23 2 18 0;
#X connect 24 0 33 0;
#X connect 26 0 27 0;
#X connect 26 0 24 1;
#X connect 28 0 19 0;
#X connect 29 0 6 0;
#X connect 29 0 257 0;
#X connect 29 2 243 0;
#X connect 31 0 30 0;
#X connect 32 0 31 0;
#X connect 34 0 15 0;
#X connect 45 0 46 1;
#X connect 46 0 44 1;
#X connect 46 0 58 0;
#X connect 47 0 48 1;
#X connect 48 0 49 0;
#X connect 49 0 44 0;
#X connect 57 0 11 0;
#X connect 60 0 61 0;
#X connect 61 0 62 0;
#X connect 61 0 230 0;
#X connect 66 0 231 0;
#X connect 70 0 73 0;
#X connect 71 0 70 0;
#X connect 72 0 70 0;
#X connect 74 0 78 0;
#X connect 75 0 79 0;
#X connect 75 0 78 1;
#X connect 76 0 75 0;
#X connect 77 0 74 0;
#X connect 78 0 79 1;
#X connect 79 0 80 0;
#X connect 80 0 81 0;
#X connect 80 0 246 0;
#X connect 81 0 71 0;
#X connect 82 0 77 0;
#X connect 83 0 76 0;
#X connect 83 0 82 0;
#X connect 84 0 232 0;
#X connect 85 0 71 0;
#X connect 86 0 84 0;
#X connect 92 0 93 0;
#X connect 93 0 96 0;
#X connect 95 0 96 1;
#X connect 96 0 105 0;
#X connect 96 2 94 0;
#X connect 97 0 95 0;
#X connect 99 0 98 0;
#X connect 99 0 107 0;
#X connect 100 0 101 0;
#X connect 100 0 104 0;
#X connect 101 0 100 1;
#X connect 102 0 103 0;
#X connect 103 0 102 1;
#X connect 104 0 99 0;
#X connect 104 0 113 0;
#X connect 104 0 141 0;
#X connect 104 0 149 0;
#X connect 105 0 100 0;
#X connect 105 0 108 0;
#X connect 111 0 100 1;
#X connect 112 0 111 0;
#X connect 113 0 106 0;
#X connect 123 0 151 0;
#X connect 125 0 124 0;
#X connect 126 0 127 0;
#X connect 126 0 131 0;
#X connect 127 0 126 1;
#X connect 128 0 129 0;
#X connect 129 0 128 1;
#X connect 130 0 126 0;
#X connect 131 0 134 0;
#X connect 141 0 140 0;
#X connect 148 0 66 0;
#X connect 149 0 157 0;
#X connect 150 0 153 0;
#X connect 152 0 148 0;
#X connect 158 0 133 0;
#X connect 165 0 164 0;
#X connect 166 0 165 0;
#X connect 167 0 169 0;
#X connect 168 0 169 0;
#X connect 168 0 163 0;
#X connect 168 0 237 0;
#X connect 171 0 216 1;
#X connect 172 0 177 0;
#X connect 172 0 176 1;
#X connect 173 0 176 0;
#X connect 173 0 177 1;
#X connect 174 0 175 0;
#X connect 175 0 185 0;
#X connect 176 0 216 5;
#X connect 177 0 216 4;
#X connect 178 0 216 2;
#X connect 179 0 216 3;
#X connect 180 0 216 7;
#X connect 181 0 216 6;
#X connect 182 0 181 0;
#X connect 182 0 180 1;
#X connect 183 0 180 0;
#X connect 183 0 181 1;
#X connect 185 0 237 0;
#X connect 185 1 216 0;
#X connect 186 0 193 0;
#X connect 187 0 198 0;
#X connect 188 0 199 0;
#X connect 189 0 194 0;
#X connect 190 0 195 0;
#X connect 191 0 196 0;
#X connect 192 0 197 0;
#X connect 215 0 185 1;
#X connect 216 0 184 0;
#X connect 216 0 217 0;
#X connect 217 0 170 0;
#X connect 221 0 215 0;
#X connect 222 0 229 0;
#X connect 222 1 223 0;
#X connect 223 0 68 0;
#X connect 224 0 14 0;
#X connect 225 0 46 0;
#X connect 226 0 225 0;
#X connect 226 1 48 0;
#X connect 227 0 228 0;
#X connect 228 0 24 0;
#X connect 230 0 222 0;
#X connect 231 0 60 0;
#X connect 232 0 234 0;
#X connect 233 0 83 0;
#X connect 234 0 233 0;
#X connect 236 0 235 0;
#X connect 238 0 16 0;
#X connect 239 0 234 0;
#X connect 240 0 239 0;
#X connect 240 1 242 0;
#X connect 241 0 240 0;
#X connect 242 0 71 0;
#X connect 243 0 227 0;
#X connect 243 0 253 0;
#X connect 244 0 253 1;
#X connect 247 0 248 0;
#X connect 248 0 249 0;
#X connect 248 0 250 0;
#X connect 251 0 247 0;
#X connect 252 0 247 0;
#X connect 253 0 226 0;
#X connect 253 2 245 0;
#X connect 254 0 255 0;
#X connect 256 0 92 0;
#X connect 258 0 230 0;
#X coords 0 0 1 1 85 60 0;
